NotoSansThai-SemiBold.ufo
<glyph name="koKai-thai" format="2">
  <advance width="624"/>
  <unicode hex="0E01"/>
  <note>
uni0E01
</note>
  <anchor x="555" y="0" name="bottom"/>
  <anchor x="538" y="536" name="top"/>
  <outline>
    <contour>
      <point x="65" y="0" type="line"/>
      <point x="215" y="0" type="line"/>
      <point x="215" y="177" type="line" smooth="yes"/>
      <point x="215" y="232"/>
      <point x="239" y="265"/>
      <point x="287" y="268" type="curve"/>
      <point x="298" y="333" type="line"/>
      <point x="209" y="374" type="line"/>
      <point x="211" y="411"/>
      <point x="241" y="441"/>
      <point x="303" y="441" type="curve" smooth="yes"/>
      <point x="367" y="441"/>
      <point x="404" y="408"/>
      <point x="404" y="341" type="curve" smooth="yes"/>
      <point x="404" y="0" type="line"/>
      <point x="554" y="0" type="line"/>
      <point x="554" y="350" type="line" smooth="yes"/>
      <point x="554" y="491"/>
      <point x="458" y="561"/>
      <point x="307" y="561" type="curve" smooth="yes"/>
      <point x="144" y="561"/>
      <point x="55" y="479"/>
      <point x="55" y="381" type="curve" smooth="yes"/>
      <point x="55" y="355" type="line"/>
      <point x="162" y="316" type="line"/>
      <point x="161" y="312" type="line"/>
      <point x="99" y="293"/>
      <point x="65" y="251"/>
      <point x="65" y="167" type="curve" smooth="yes"/>
    </contour>
  </outline>
</glyph>
<glyph name="khoKhai-thai" format="2">
  <advance width="592"/>
  <unicode hex="0E02"/>
  <note>
uni0E02
</note>
  <anchor x="502" y="0" name="bottom"/>
  <anchor x="522" y="536" name="top"/>
  <outline>
    <contour>
      <point x="295" y="-13" type="curve" smooth="yes"/>
      <point x="443" y="-13"/>
      <point x="522" y="55"/>
      <point x="522" y="187" type="curve" smooth="yes"/>
      <point x="522" y="548" type="line"/>
      <point x="373" y="548" type="line"/>
      <point x="373" y="191" type="line" smooth="yes"/>
      <point x="373" y="135"/>
      <point x="348" y="104"/>
      <point x="296" y="104" type="curve" smooth="yes"/>
      <point x="247" y="104"/>
      <point x="218" y="131"/>
      <point x="218" y="196" type="curve" smooth="yes"/>
      <point x="218" y="236" type="line" smooth="yes"/>
      <point x="218" y="286"/>
      <point x="234" y="306"/>
      <point x="252" y="337" type="curve" smooth="yes"/>
      <point x="271" y="370"/>
      <point x="284" y="399"/>
      <point x="284" y="440" type="curve" smooth="yes"/>
      <point x="284" y="511"/>
      <point x="251" y="556"/>
      <point x="163" y="556" type="curve" smooth="yes"/>
      <point x="130" y="556"/>
      <point x="82" y="550"/>
      <point x="45" y="530" type="curve"/>
      <point x="69" y="436" type="line"/>
      <point x="86" y="444"/>
      <point x="100" y="448"/>
      <point x="113" y="448" type="curve" smooth="yes"/>
      <point x="131" y="448"/>
      <point x="144" y="439"/>
      <point x="144" y="415" type="curve" smooth="yes"/>
      <point x="144" y="389"/>
      <point x="128" y="368"/>
      <point x="107" y="339" type="curve" smooth="yes"/>
      <point x="86" y="310"/>
      <point x="69" y="277"/>
      <point x="69" y="223" type="curve" smooth="yes"/>
      <point x="69" y="183" type="line" smooth="yes"/>
      <point x="69" y="55"/>
      <point x="146" y="-13"/>
    </contour>
  </outline>
</glyph>
<glyph name="khoKhuat-thai" format="2">
  <advance width="601"/>
  <unicode hex="0E03"/>
  <anchor x="505" y="0" name="bottom"/>
  <anchor x="531" y="536" name="top"/>
  <outline>
    <contour>
      <point x="301" y="-13" type="curve" smooth="yes"/>
      <point x="451" y="-13"/>
      <point x="531" y="55"/>
      <point x="531" y="187" type="curve" smooth="yes"/>
      <point x="531" y="548" type="line"/>
      <point x="382" y="548" type="line"/>
      <point x="382" y="191" type="line" smooth="yes"/>
      <point x="382" y="136"/>
      <point x="357" y="104"/>
      <point x="301" y="104" type="curve" smooth="yes"/>
      <point x="250" y="104"/>
      <point x="220" y="132"/>
      <point x="220" y="198" type="curve" smooth="yes"/>
      <point x="220" y="234" type="line" smooth="yes"/>
      <point x="220" y="296"/>
      <point x="241" y="314"/>
      <point x="267" y="351" type="curve" smooth="yes"/>
      <point x="297" y="394"/>
      <point x="307" y="417"/>
      <point x="307" y="481" type="curve" smooth="yes"/>
      <point x="307" y="548" type="line"/>
      <point x="228" y="548" type="line"/>
      <point x="211" y="510" type="line"/>
      <point x="199" y="500"/>
      <point x="185" y="496"/>
      <point x="175" y="496" type="curve" smooth="yes"/>
      <point x="154" y="496"/>
      <point x="146" y="511"/>
      <point x="146" y="548" type="curve"/>
      <point x="39" y="548" type="line"/>
      <point x="39" y="512" type="line" smooth="yes"/>
      <point x="39" y="446"/>
      <point x="73" y="409"/>
      <point x="123" y="409" type="curve" smooth="yes"/>
      <point x="139" y="409"/>
      <point x="153" y="413"/>
      <point x="166" y="420" type="curve"/>
      <point x="169" y="419" type="line"/>
      <point x="167" y="401"/>
      <point x="148" y="382"/>
      <point x="135" y="367" type="curve" smooth="yes"/>
      <point x="94" y="320"/>
      <point x="70" y="282"/>
      <point x="70" y="219" type="curve" smooth="yes"/>
      <point x="70" y="186" type="line" smooth="yes"/>
      <point x="70" y="59"/>
      <point x="144" y="-13"/>
    </contour>
  </outline>
</glyph>
<glyph name="khoKhwai-thai" format="2">
  <advance width="646"/>
  <unicode hex="0E04"/>
  <note>
uni0E04
</note>
  <anchor x="576" y="1" name="bottom"/>
  <anchor x="560" y="536" name="top"/>
  <outline>
    <contour>
      <point x="70" y="0" type="line"/>
      <point x="218" y="0" type="line"/>
      <point x="218" y="68" type="line" smooth="yes"/>
      <point x="218" y="135"/>
      <point x="239" y="191"/>
      <point x="339" y="191" type="curve" smooth="yes"/>
      <point x="362" y="191" type="line"/>
      <point x="362" y="303" type="line"/>
      <point x="339" y="303" type="line" smooth="yes"/>
      <point x="277" y="303"/>
      <point x="246" y="291"/>
      <point x="221" y="239" type="curve"/>
      <point x="218" y="240" type="line"/>
      <point x="218" y="327" type="line" smooth="yes"/>
      <point x="218" y="398"/>
      <point x="249" y="441"/>
      <point x="322" y="441" type="curve" smooth="yes"/>
      <point x="396" y="441"/>
      <point x="427" y="398"/>
      <point x="427" y="327" type="curve" smooth="yes"/>
      <point x="427" y="0" type="line"/>
      <point x="576" y="0" type="line"/>
      <point x="576" y="325" type="line" smooth="yes"/>
      <point x="576" y="478"/>
      <point x="501" y="561"/>
      <point x="324" y="561" type="curve" smooth="yes"/>
      <point x="148" y="561"/>
      <point x="70" y="478"/>
      <point x="70" y="325" type="curve" smooth="yes"/>
    </contour>
  </outline>
</glyph>
<glyph name="khoKhon-thai" format="2">
  <advance width="658"/>
  <unicode hex="0E05"/>
  <anchor x="587" y="1" name="bottom"/>
  <anchor x="571" y="536" name="top"/>
  <outline>
    <contour>
      <point x="70" y="0" type="line"/>
      <point x="218" y="0" type="line"/>
      <point x="218" y="68" type="line" smooth="yes"/>
      <point x="218" y="135"/>
      <point x="239" y="191"/>
      <point x="346" y="191" type="curve" smooth="yes"/>
      <point x="370" y="191" type="line"/>
      <point x="370" y="303" type="line"/>
      <point x="346" y="303" type="line" smooth="yes"/>
      <point x="277" y="303"/>
      <point x="246" y="291"/>
      <point x="220" y="239" type="curve"/>
      <point x="217" y="240" type="line"/>
      <point x="217" y="384" type="line" smooth="yes"/>
      <point x="217" y="426"/>
      <point x="234" y="440"/>
      <point x="257" y="440" type="curve" smooth="yes"/>
      <point x="282" y="440"/>
      <point x="296" y="425"/>
      <point x="299" y="390" type="curve"/>
      <point x="357" y="390" type="line"/>
      <point x="359" y="425"/>
      <point x="374" y="440"/>
      <point x="399" y="440" type="curve" smooth="yes"/>
      <point x="422" y="440"/>
      <point x="439" y="426"/>
      <point x="439" y="384" type="curve" smooth="yes"/>
      <point x="439" y="0" type="line"/>
      <point x="588" y="0" type="line"/>
      <point x="588" y="422" type="line" smooth="yes"/>
      <point x="588" y="516"/>
      <point x="532" y="561"/>
      <point x="445" y="561" type="curve" smooth="yes"/>
      <point x="388" y="561"/>
      <point x="345" y="541"/>
      <point x="331" y="498" type="curve"/>
      <point x="326" y="498" type="line"/>
      <point x="313" y="541"/>
      <point x="270" y="561"/>
      <point x="213" y="561" type="curve" smooth="yes"/>
      <point x="126" y="561"/>
      <point x="70" y="516"/>
      <point x="70" y="422" type="curve" smooth="yes"/>
    </contour>
  </outline>
</glyph>
<glyph name="khoRakhang-thai" format="2">
  <advance width="639"/>
  <unicode hex="0E06"/>
  <anchor x="555" y="0" name="bottom"/>
  <anchor x="569" y="536" name="top"/>
  <outline>
    <contour>
      <point x="388" y="-10" type="curve" smooth="yes"/>
      <point x="506" y="-10"/>
      <point x="569" y="62"/>
      <point x="569" y="192" type="curve" smooth="yes"/>
      <point x="569" y="548" type="line"/>
      <point x="419" y="548" type="line"/>
      <point x="419" y="225" type="line" smooth="yes"/>
      <point x="419" y="149"/>
      <point x="388" y="120"/>
      <point x="333" y="120" type="curve" smooth="yes"/>
      <point x="265" y="120"/>
      <point x="224" y="164"/>
      <point x="224" y="232" type="curve" smooth="yes"/>
      <point x="224" y="239" type="line" smooth="yes"/>
      <point x="224" y="292"/>
      <point x="245" y="310"/>
      <point x="274" y="351" type="curve" smooth="yes"/>
      <point x="308" y="399"/>
      <point x="316" y="425"/>
      <point x="316" y="481" type="curve" smooth="yes"/>
      <point x="316" y="548" type="line"/>
      <point x="232" y="548" type="line"/>
      <point x="216" y="510" type="line"/>
      <point x="204" y="500"/>
      <point x="190" y="496"/>
      <point x="179" y="496" type="curve" smooth="yes"/>
      <point x="159" y="496"/>
      <point x="150" y="511"/>
      <point x="150" y="548" type="curve"/>
      <point x="43" y="548" type="line"/>
      <point x="43" y="512" type="line" smooth="yes"/>
      <point x="43" y="446"/>
      <point x="77" y="409"/>
      <point x="127" y="409" type="curve" smooth="yes"/>
      <point x="143" y="409"/>
      <point x="157" y="413"/>
      <point x="170" y="420" type="curve"/>
      <point x="173" y="419" type="line"/>
      <point x="171" y="403"/>
      <point x="156" y="388"/>
      <point x="137" y="367" type="curve" smooth="yes"/>
      <point x="94" y="320"/>
      <point x="74" y="278"/>
      <point x="74" y="212" type="curve" smooth="yes"/>
      <point x="74" y="0" type="line"/>
      <point x="185" y="0" type="line"/>
      <point x="201" y="86" type="line"/>
      <point x="210" y="86" type="line"/>
      <point x="233" y="30"/>
      <point x="295" y="-10"/>
    </contour>
  </outline>
</glyph>
<glyph name="ngoNgu-thai" format="2">
  <advance width="571"/>
  <unicode hex="0E07"/>
  <note>
uni0E07
</note>
  <anchor x="434" y="0" name="bottom"/>
  <anchor x="478" y="536" name="top"/>
  <outline>
    <contour>
      <point x="164" y="0" type="line"/>
      <point x="242" y="0" type="line" smooth="yes"/>
      <point x="347" y="0"/>
      <point x="402" y="24"/>
      <point x="442" y="63" type="curve" smooth="yes"/>
      <point x="490" y="110"/>
      <point x="529" y="192"/>
      <point x="529" y="300" type="curve" smooth="yes"/>
      <point x="529" y="385"/>
      <point x="505" y="454"/>
      <point x="459" y="500" type="curve" smooth="yes"/>
      <point x="422" y="537"/>
      <point x="371" y="556"/>
      <point x="300" y="556" type="curve" smooth="yes"/>
      <point x="282" y="556"/>
      <point x="253" y="555"/>
      <point x="223" y="546" type="curve"/>
      <point x="251" y="431" type="line"/>
      <point x="259" y="435"/>
      <point x="269" y="436"/>
      <point x="281" y="436" type="curve" smooth="yes"/>
      <point x="341" y="436"/>
      <point x="377" y="386"/>
      <point x="377" y="297" type="curve" smooth="yes"/>
      <point x="377" y="246"/>
      <point x="363" y="191"/>
      <point x="337" y="154" type="curve" smooth="yes"/>
      <point x="323" y="134"/>
      <point x="304" y="121"/>
      <point x="283" y="121" type="curve" smooth="yes"/>
      <point x="277" y="121" type="line"/>
      <point x="156" y="548" type="line"/>
      <point x="5" y="548" type="line"/>
    </contour>
  </outline>
</glyph>
<glyph name="choChan-thai" format="2">
  <advance width="559"/>
  <unicode hex="0E08"/>
  <anchor x="446" y="0" name="bottom"/>
  <anchor x="486" y="536" name="top"/>
  <outline>
    <contour>
      <point x="115" y="0" type="line"/>
      <point x="242" y="0" type="line" smooth="yes"/>
      <point x="439" y="0"/>
      <point x="513" y="99"/>
      <point x="513" y="278" type="curve" smooth="yes"/>
      <point x="513" y="468"/>
      <point x="430" y="561"/>
      <point x="237" y="561" type="curve" smooth="yes"/>
      <point x="150" y="561"/>
      <point x="83" y="541"/>
      <point x="39" y="518" type="curve"/>
      <point x="39" y="393" type="line"/>
      <point x="83" y="420"/>
      <point x="139" y="442"/>
      <point x="208" y="442" type="curve" smooth="yes"/>
      <point x="308" y="442"/>
      <point x="361" y="399"/>
      <point x="361" y="275" type="curve" smooth="yes"/>
      <point x="361" y="167"/>
      <point x="323" y="114"/>
      <point x="257" y="114" type="curve" smooth="yes"/>
      <point x="250" y="114" type="line"/>
      <point x="250" y="322" type="line"/>
      <point x="58" y="322" type="line"/>
      <point x="58" y="230" type="line"/>
      <point x="115" y="230" type="line"/>
    </contour>
  </outline>
</glyph>
<glyph name="choChing-thai" format="2">
  <advance width="623"/>
  <unicode hex="0E09"/>
  <anchor x="554" y="0" name="bottom"/>
  <anchor x="544" y="536" name="top"/>
  <outline>
    <contour>
      <point x="247" y="-10" type="curve" smooth="yes"/>
      <point x="335" y="-10"/>
      <point x="390" y="31"/>
      <point x="415" y="81" type="curve"/>
      <point x="423" y="81" type="line"/>
      <point x="439" y="0" type="line"/>
      <point x="553" y="0" type="line"/>
      <point x="553" y="325" type="line" smooth="yes"/>
      <point x="553" y="478"/>
      <point x="480" y="561"/>
      <point x="303" y="561" type="curve" smooth="yes"/>
      <point x="213" y="561"/>
      <point x="132" y="540"/>
      <point x="89" y="518" type="curve"/>
      <point x="89" y="393" type="line"/>
      <point x="136" y="419"/>
      <point x="198" y="442"/>
      <point x="269" y="442" type="curve" smooth="yes"/>
      <point x="352" y="442"/>
      <point x="403" y="412"/>
      <point x="403" y="322" type="curve" smooth="yes"/>
      <point x="403" y="243" type="line" smooth="yes"/>
      <point x="403" y="164"/>
      <point x="363" y="119"/>
      <point x="298" y="119" type="curve" smooth="yes"/>
      <point x="247" y="119"/>
      <point x="219" y="147"/>
      <point x="219" y="210" type="curve" smooth="yes"/>
      <point x="219" y="313" type="line"/>
      <point x="75" y="313" type="line"/>
      <point x="75" y="166" type="line" smooth="yes"/>
      <point x="75" y="42"/>
      <point x="136" y="-10"/>
    </contour>
  </outline>
</glyph>
<glyph name="choChang-thai" format="2">
  <advance width="599"/>
  <unicode hex="0E0A"/>
  <anchor x="506" y="0" name="bottom"/>
  <anchor x="544" y="534" name="top"/>
  <outline>
    <contour>
      <point x="303" y="-13" type="curve" smooth="yes"/>
      <point x="453" y="-13"/>
      <point x="532" y="55"/>
      <point x="532" y="187" type="curve" smooth="yes"/>
      <point x="532" y="289" type="line" smooth="yes"/>
      <point x="532" y="336"/>
      <point x="519" y="375"/>
      <point x="472" y="389" type="curve"/>
      <point x="472" y="393" type="line"/>
      <point x="525" y="412"/>
      <point x="544" y="466"/>
      <point x="544" y="548" type="curve"/>
      <point x="395" y="548" type="line"/>
      <point x="395" y="490"/>
      <point x="387" y="432"/>
      <point x="325" y="432" type="curve" smooth="yes"/>
      <point x="319" y="432" type="line"/>
      <point x="319" y="353" type="line"/>
      <point x="324" y="353" type="line" smooth="yes"/>
      <point x="367" y="353"/>
      <point x="383" y="328"/>
      <point x="383" y="288" type="curve" smooth="yes"/>
      <point x="383" y="191" type="line" smooth="yes"/>
      <point x="383" y="137"/>
      <point x="360" y="104"/>
      <point x="303" y="104" type="curve" smooth="yes"/>
      <point x="250" y="104"/>
      <point x="220" y="132"/>
      <point x="220" y="198" type="curve" smooth="yes"/>
      <point x="220" y="236" type="line" smooth="yes"/>
      <point x="220" y="286"/>
      <point x="234" y="306"/>
      <point x="252" y="337" type="curve" smooth="yes"/>
      <point x="271" y="370"/>
      <point x="284" y="399"/>
      <point x="284" y="440" type="curve" smooth="yes"/>
      <point x="284" y="511"/>
      <point x="251" y="556"/>
      <point x="163" y="556" type="curve" smooth="yes"/>
      <point x="130" y="556"/>
      <point x="82" y="550"/>
      <point x="45" y="530" type="curve"/>
      <point x="69" y="436" type="line"/>
      <point x="86" y="444"/>
      <point x="100" y="448"/>
      <point x="113" y="448" type="curve" smooth="yes"/>
      <point x="131" y="448"/>
      <point x="144" y="439"/>
      <point x="144" y="415" type="curve" smooth="yes"/>
      <point x="144" y="389"/>
      <point x="128" y="368"/>
      <point x="107" y="339" type="curve" smooth="yes"/>
      <point x="86" y="310"/>
      <point x="72" y="276"/>
      <point x="72" y="222" type="curve" smooth="yes"/>
      <point x="72" y="183" type="line" smooth="yes"/>
      <point x="72" y="56"/>
      <point x="151" y="-13"/>
    </contour>
  </outline>
</glyph>
<glyph name="soSo-thai" format="2">
  <advance width="603"/>
  <unicode hex="0E0B"/>
  <note>
uni0E0B
</note>
  <anchor x="511" y="0" name="bottom"/>
  <anchor x="549" y="535" name="top"/>
  <outline>
    <contour>
      <point x="304" y="-13" type="curve" smooth="yes"/>
      <point x="457" y="-13"/>
      <point x="536" y="56"/>
      <point x="536" y="187" type="curve" smooth="yes"/>
      <point x="536" y="285" type="line" smooth="yes"/>
      <point x="536" y="340"/>
      <point x="521" y="376"/>
      <point x="476" y="389" type="curve"/>
      <point x="476" y="393" type="line"/>
      <point x="530" y="414"/>
      <point x="548" y="466"/>
      <point x="548" y="548" type="curve"/>
      <point x="400" y="548" type="line"/>
      <point x="400" y="490"/>
      <point x="393" y="432"/>
      <point x="334" y="432" type="curve" smooth="yes"/>
      <point x="330" y="432" type="line"/>
      <point x="330" y="353" type="line"/>
      <point x="333" y="353" type="line" smooth="yes"/>
      <point x="372" y="353"/>
      <point x="388" y="328"/>
      <point x="388" y="288" type="curve" smooth="yes"/>
      <point x="388" y="191" type="line" smooth="yes"/>
      <point x="388" y="137"/>
      <point x="363" y="104"/>
      <point x="304" y="104" type="curve" smooth="yes"/>
      <point x="252" y="104"/>
      <point x="222" y="131"/>
      <point x="222" y="198" type="curve" smooth="yes"/>
      <point x="222" y="238" type="line" smooth="yes"/>
      <point x="222" y="296"/>
      <point x="242" y="314"/>
      <point x="267" y="351" type="curve" smooth="yes"/>
      <point x="296" y="394"/>
      <point x="302" y="417"/>
      <point x="302" y="481" type="curve" smooth="yes"/>
      <point x="302" y="548" type="line"/>
      <point x="228" y="548" type="line"/>
      <point x="212" y="510" type="line"/>
      <point x="200" y="500"/>
      <point x="186" y="496"/>
      <point x="175" y="496" type="curve" smooth="yes"/>
      <point x="155" y="496"/>
      <point x="146" y="511"/>
      <point x="146" y="548" type="curve"/>
      <point x="39" y="548" type="line"/>
      <point x="39" y="512" type="line" smooth="yes"/>
      <point x="39" y="446"/>
      <point x="73" y="409"/>
      <point x="123" y="409" type="curve" smooth="yes"/>
      <point x="139" y="409"/>
      <point x="153" y="413"/>
      <point x="166" y="420" type="curve"/>
      <point x="169" y="419" type="line"/>
      <point x="167" y="401"/>
      <point x="148" y="382"/>
      <point x="135" y="367" type="curve" smooth="yes"/>
      <point x="94" y="320"/>
      <point x="72" y="282"/>
      <point x="72" y="219" type="curve" smooth="yes"/>
      <point x="72" y="186" type="line" smooth="yes"/>
      <point x="72" y="59"/>
      <point x="149" y="-13"/>
    </contour>
  </outline>
</glyph>
<glyph name="yoYing-thai" format="2">
  <advance width="937"/>
  <unicode hex="0E0D"/>
  <anchor x="819" y="-171" name="bottom"/>
  <anchor x="858" y="536" name="top"/>
  <outline>
    <contour>
      <point x="597" y="-196" type="curve" smooth="yes"/>
      <point x="768" y="-196"/>
      <point x="858" y="-111"/>
      <point x="858" y="67" type="curve" smooth="yes"/>
      <point x="858" y="548" type="line"/>
      <point x="708" y="548" type="line"/>
      <point x="708" y="268" type="line" smooth="yes"/>
      <point x="708" y="188"/>
      <point x="670" y="136"/>
      <point x="613" y="136" type="curve" smooth="yes"/>
      <point x="572" y="136"/>
      <point x="540" y="162"/>
      <point x="540" y="226" type="curve" smooth="yes"/>
      <point x="540" y="360" type="line" smooth="yes"/>
      <point x="540" y="494"/>
      <point x="448" y="561"/>
      <point x="301" y="561" type="curve" smooth="yes"/>
      <point x="143" y="561"/>
      <point x="55" y="482"/>
      <point x="55" y="381" type="curve" smooth="yes"/>
      <point x="55" y="355" type="line"/>
      <point x="164" y="316" type="line"/>
      <point x="163" y="312" type="line"/>
      <point x="101" y="293"/>
      <point x="65" y="261"/>
      <point x="65" y="183" type="curve" smooth="yes"/>
      <point x="65" y="118" type="line" smooth="yes"/>
      <point x="65" y="31"/>
      <point x="120" y="-10"/>
      <point x="206" y="-10" type="curve" smooth="yes"/>
      <point x="242" y="-10"/>
      <point x="275" y="-3"/>
      <point x="300" y="10" type="curve"/>
      <point x="286" y="99" type="line"/>
      <point x="276" y="95"/>
      <point x="263" y="93"/>
      <point x="251" y="93" type="curve" smooth="yes"/>
      <point x="223" y="93"/>
      <point x="211" y="105"/>
      <point x="211" y="134" type="curve" smooth="yes"/>
      <point x="211" y="195" type="line" smooth="yes"/>
      <point x="211" y="250"/>
      <point x="237" y="269"/>
      <point x="286" y="270" type="curve"/>
      <point x="296" y="335" type="line"/>
      <point x="209" y="377" type="line"/>
      <point x="212" y="421"/>
      <point x="248" y="443"/>
      <point x="299" y="443" type="curve" smooth="yes"/>
      <point x="352" y="443"/>
      <point x="393" y="419"/>
      <point x="393" y="349" type="curve" smooth="yes"/>
      <point x="393" y="181" type="line" smooth="yes"/>
      <point x="393" y="59"/>
      <point x="460" y="7"/>
      <point x="560" y="7" type="curve" smooth="yes"/>
      <point x="635" y="7"/>
      <point x="681" y="38"/>
      <point x="706" y="75" type="curve"/>
      <point x="713" y="75" type="line"/>
      <point x="713" y="46" type="line" smooth="yes"/>
      <point x="713" y="-39"/>
      <point x="662" y="-76"/>
      <point x="576" y="-76" type="curve" smooth="yes"/>
      <point x="516" y="-76"/>
      <point x="458" y="-57"/>
      <point x="424" y="-35" type="curve"/>
      <point x="424" y="-162" type="line"/>
      <point x="475" y="-185"/>
      <point x="537" y="-196"/>
    </contour>
  </outline>
</glyph>
<glyph name="toPatak-thai" format="2">
  <advance width="637"/>
  <unicode hex="0E0F"/>
  <anchor x="567" y="-194" name="bottom"/>
  <anchor x="553" y="536" name="top"/>
  <outline>
    <contour>
      <point x="61" y="-212" type="line"/>
      <point x="181" y="-212" type="line"/>
      <point x="181" y="-207" type="line" smooth="yes"/>
      <point x="181" y="-185"/>
      <point x="189" y="-158"/>
      <point x="221" y="-158" type="curve" smooth="yes"/>
      <point x="252" y="-158"/>
      <point x="273" y="-184"/>
      <point x="286" y="-212" type="curve"/>
      <point x="321" y="-212" type="line"/>
      <point x="372" y="-160" type="line"/>
      <point x="441" y="-212" type="line"/>
      <point x="567" y="-212" type="line"/>
      <point x="567" y="350" type="line" smooth="yes"/>
      <point x="567" y="491"/>
      <point x="471" y="561"/>
      <point x="317" y="561" type="curve" smooth="yes"/>
      <point x="152" y="561"/>
      <point x="67" y="479"/>
      <point x="67" y="381" type="curve" smooth="yes"/>
      <point x="67" y="355" type="line"/>
      <point x="176" y="316" type="line"/>
      <point x="175" y="312" type="line"/>
      <point x="120" y="298"/>
      <point x="94" y="263"/>
      <point x="94" y="198" type="curve" smooth="yes"/>
      <point x="94" y="131" type="line" smooth="yes"/>
      <point x="94" y="107"/>
      <point x="84" y="96"/>
      <point x="62" y="96" type="curve" smooth="yes"/>
      <point x="54" y="96"/>
      <point x="45" y="97"/>
      <point x="36" y="100" type="curve"/>
      <point x="22" y="17" type="line"/>
      <point x="46" y="5"/>
      <point x="76" y="-4"/>
      <point x="114" y="-4" type="curve" smooth="yes"/>
      <point x="187" y="-4"/>
      <point x="240" y="28"/>
      <point x="240" y="114" type="curve" smooth="yes"/>
      <point x="240" y="192" type="line" smooth="yes"/>
      <point x="240" y="246"/>
      <point x="259" y="270"/>
      <point x="297" y="270" type="curve"/>
      <point x="308" y="335" type="line"/>
      <point x="221" y="374" type="line"/>
      <point x="223" y="411"/>
      <point x="253" y="441"/>
      <point x="315" y="441" type="curve" smooth="yes"/>
      <point x="380" y="441"/>
      <point x="417" y="408"/>
      <point x="417" y="341" type="curve" smooth="yes"/>
      <point x="417" y="-116" type="line"/>
      <point x="438" y="-111" type="line"/>
      <point x="361" y="-56" type="line"/>
      <point x="304" y="-108" type="line"/>
      <point x="279" y="-66"/>
      <point x="242" y="-44"/>
      <point x="187" y="-44" type="curve" smooth="yes"/>
      <point x="118" y="-44"/>
      <point x="61" y="-85"/>
      <point x="61" y="-177" type="curve" smooth="yes"/>
    </contour>
  </outline>
</glyph>
<glyph name="thoThan-thai" format="2">
  <advance width="572"/>
  <unicode hex="0E10"/>
  <anchor x="510" y="-194" name="bottom"/>
  <anchor x="501" y="536" name="top"/>
  <outline>
    <contour>
      <point x="117" y="0" type="line"/>
      <point x="244" y="0" type="line" smooth="yes"/>
      <point x="438" y="0"/>
      <point x="515" y="99"/>
      <point x="515" y="271" type="curve" smooth="yes"/>
      <point x="515" y="387"/>
      <point x="478" y="453"/>
      <point x="421" y="478" type="curve"/>
      <point x="398" y="540"/>
      <point x="330" y="561"/>
      <point x="241" y="561" type="curve" smooth="yes"/>
      <point x="152" y="561"/>
      <point x="85" y="541"/>
      <point x="41" y="518" type="curve"/>
      <point x="41" y="393" type="line"/>
      <point x="85" y="420"/>
      <point x="140" y="442"/>
      <point x="211" y="442" type="curve" smooth="yes"/>
      <point x="311" y="442"/>
      <point x="363" y="399"/>
      <point x="363" y="275" type="curve" smooth="yes"/>
      <point x="363" y="167"/>
      <point x="325" y="114"/>
      <point x="259" y="114" type="curve" smooth="yes"/>
      <point x="252" y="114" type="line"/>
      <point x="252" y="322" type="line"/>
      <point x="60" y="322" type="line"/>
      <point x="60" y="230" type="line"/>
      <point x="117" y="230" type="line"/>
    </contour>
    <contour>
      <point x="41" y="-212" type="line"/>
      <point x="152" y="-212" type="line"/>
      <point x="152" y="-207" type="line" smooth="yes"/>
      <point x="152" y="-185"/>
      <point x="159" y="-158"/>
      <point x="189" y="-158" type="curve" smooth="yes"/>
      <point x="220" y="-158"/>
      <point x="240" y="-184"/>
      <point x="253" y="-212" type="curve"/>
      <point x="280" y="-212" type="line"/>
      <point x="323" y="-161" type="line"/>
      <point x="381" y="-212" type="line"/>
      <point x="510" y="-212" type="line"/>
      <point x="510" y="-32" type="line"/>
      <point x="386" y="-32" type="line"/>
      <point x="386" y="-120" type="line"/>
      <point x="399" y="-115" type="line"/>
      <point x="322" y="-58" type="line"/>
      <point x="270" y="-112" type="line"/>
      <point x="243" y="-72"/>
      <point x="212" y="-47"/>
      <point x="158" y="-47" type="curve" smooth="yes"/>
      <point x="91" y="-47"/>
      <point x="41" y="-88"/>
      <point x="41" y="-181" type="curve" smooth="yes"/>
    </contour>
    <contour>
      <point x="423" y="439" type="line"/>
      <point x="512" y="464"/>
      <point x="548" y="522"/>
      <point x="548" y="584" type="curve"/>
      <point x="417" y="584" type="line"/>
      <point x="416" y="548"/>
      <point x="388" y="524"/>
      <point x="341" y="508" type="curve"/>
    </contour>
  </outline>
</glyph>
<glyph name="thoNangmontho-thai" format="2">
  <advance width="650"/>
  <unicode hex="0E11"/>
  <anchor x="581" y="0" name="bottom"/>
  <anchor x="559" y="536" name="top"/>
  <outline>
    <contour>
      <point x="84" y="0" type="line"/>
      <point x="234" y="0" type="line"/>
      <point x="234" y="212" type="line" smooth="yes"/>
      <point x="234" y="282"/>
      <point x="246" y="311"/>
      <point x="279" y="356" type="curve" smooth="yes"/>
      <point x="320" y="412"/>
      <point x="348" y="434"/>
      <point x="381" y="434" type="curve" smooth="yes"/>
      <point x="415" y="434"/>
      <point x="430" y="411"/>
      <point x="430" y="363" type="curve" smooth="yes"/>
      <point x="430" y="0" type="line"/>
      <point x="580" y="0" type="line"/>
      <point x="580" y="425" type="line" smooth="yes"/>
      <point x="580" y="507"/>
      <point x="535" y="558"/>
      <point x="449" y="558" type="curve" smooth="yes"/>
      <point x="382" y="558"/>
      <point x="331" y="527"/>
      <point x="298" y="473" type="curve"/>
      <point x="294" y="473" type="line"/>
      <point x="294" y="548" type="line"/>
      <point x="222" y="548" type="line"/>
      <point x="205" y="510" type="line"/>
      <point x="194" y="499"/>
      <point x="182" y="496"/>
      <point x="172" y="496" type="curve" smooth="yes"/>
      <point x="151" y="496"/>
      <point x="143" y="510"/>
      <point x="143" y="548" type="curve"/>
      <point x="39" y="548" type="line"/>
      <point x="39" y="512" type="line" smooth="yes"/>
      <point x="39" y="446"/>
      <point x="73" y="409"/>
      <point x="123" y="409" type="curve" smooth="yes"/>
      <point x="139" y="409"/>
      <point x="153" y="413"/>
      <point x="166" y="420" type="curve"/>
      <point x="169" y="419" type="line"/>
      <point x="167" y="403"/>
      <point x="160" y="396"/>
      <point x="131" y="363" type="curve" smooth="yes"/>
      <point x="88" y="313"/>
      <point x="84" y="274"/>
      <point x="84" y="210" type="curve" smooth="yes"/>
    </contour>
  </outline>
</glyph>
<glyph name="thoPhuthao-thai" format="2">
  <advance width="942"/>
  <unicode hex="0E12"/>
  <anchor x="862" y="0" name="bottom"/>
  <anchor x="883" y="536" name="top"/>
  <outline>
    <contour>
      <point x="274" y="-10" type="curve" smooth="yes"/>
      <point x="306" y="-10"/>
      <point x="330" y="-6"/>
      <point x="352" y="3" type="curve"/>
      <point x="337" y="110" type="line"/>
      <point x="326" y="106"/>
      <point x="314" y="104"/>
      <point x="299" y="104" type="curve" smooth="yes"/>
      <point x="221" y="104"/>
      <point x="202" y="165"/>
      <point x="202" y="283" type="curve" smooth="yes"/>
      <point x="202" y="400"/>
      <point x="220" y="438"/>
      <point x="253" y="438" type="curve" smooth="yes"/>
      <point x="270" y="438"/>
      <point x="285" y="428"/>
      <point x="290" y="390" type="curve"/>
      <point x="348" y="390" type="line"/>
      <point x="352" y="425"/>
      <point x="364" y="438"/>
      <point x="386" y="438" type="curve" smooth="yes"/>
      <point x="407" y="438"/>
      <point x="420" y="427"/>
      <point x="420" y="385" type="curve" smooth="yes"/>
      <point x="420" y="0" type="line"/>
      <point x="535" y="0" type="line"/>
      <point x="551" y="86" type="line"/>
      <point x="559" y="86" type="line"/>
      <point x="583" y="32"/>
      <point x="634" y="-10"/>
      <point x="722" y="-10" type="curve" smooth="yes"/>
      <point x="830" y="-10"/>
      <point x="883" y="52"/>
      <point x="883" y="177" type="curve" smooth="yes"/>
      <point x="883" y="548" type="line"/>
      <point x="733" y="548" type="line"/>
      <point x="733" y="210" type="line" smooth="yes"/>
      <point x="733" y="146"/>
      <point x="703" y="120"/>
      <point x="662" y="120" type="curve" smooth="yes"/>
      <point x="606" y="120"/>
      <point x="568" y="172"/>
      <point x="568" y="252" type="curve" smooth="yes"/>
      <point x="568" y="413" type="line" smooth="yes"/>
      <point x="568" y="507"/>
      <point x="521" y="558"/>
      <point x="436" y="558" type="curve" smooth="yes"/>
      <point x="390" y="558"/>
      <point x="343" y="544"/>
      <point x="324" y="495" type="curve"/>
      <point x="320" y="495" type="line"/>
      <point x="299" y="543"/>
      <point x="264" y="558"/>
      <point x="218" y="558" type="curve" smooth="yes"/>
      <point x="110" y="558"/>
      <point x="52" y="477"/>
      <point x="52" y="281" type="curve" smooth="yes"/>
      <point x="52" y="104"/>
      <point x="101" y="-10"/>
    </contour>
  </outline>
</glyph>
<glyph name="noNen-thai" format="2">
  <advance width="937"/>
  <unicode hex="0E13"/>
  <anchor x="858" y="0" name="bottom"/>
  <anchor x="858" y="536" name="top"/>
  <outline>
    <contour>
      <point x="206" y="-10" type="curve" smooth="yes"/>
      <point x="242" y="-10"/>
      <point x="275" y="-3"/>
      <point x="300" y="10" type="curve"/>
      <point x="286" y="99" type="line"/>
      <point x="276" y="95"/>
      <point x="263" y="93"/>
      <point x="251" y="93" type="curve" smooth="yes"/>
      <point x="223" y="93"/>
      <point x="211" y="105"/>
      <point x="211" y="134" type="curve" smooth="yes"/>
      <point x="211" y="195" type="line" smooth="yes"/>
      <point x="211" y="250"/>
      <point x="237" y="269"/>
      <point x="286" y="270" type="curve"/>
      <point x="296" y="335" type="line"/>
      <point x="209" y="377" type="line"/>
      <point x="212" y="421"/>
      <point x="248" y="443"/>
      <point x="299" y="443" type="curve" smooth="yes"/>
      <point x="352" y="443"/>
      <point x="393" y="419"/>
      <point x="393" y="349" type="curve" smooth="yes"/>
      <point x="393" y="171" type="line" smooth="yes"/>
      <point x="393" y="46"/>
      <point x="448" y="-10"/>
      <point x="558" y="-10" type="curve" smooth="yes"/>
      <point x="638" y="-10"/>
      <point x="693" y="30"/>
      <point x="717" y="86" type="curve"/>
      <point x="725" y="86" type="line"/>
      <point x="742" y="0" type="line"/>
      <point x="858" y="0" type="line"/>
      <point x="858" y="548" type="line"/>
      <point x="708" y="548" type="line"/>
      <point x="708" y="252" type="line" smooth="yes"/>
      <point x="708" y="172"/>
      <point x="670" y="120"/>
      <point x="613" y="120" type="curve" smooth="yes"/>
      <point x="571" y="120"/>
      <point x="540" y="146"/>
      <point x="540" y="210" type="curve" smooth="yes"/>
      <point x="540" y="360" type="line" smooth="yes"/>
      <point x="540" y="494"/>
      <point x="448" y="561"/>
      <point x="301" y="561" type="curve" smooth="yes"/>
      <point x="143" y="561"/>
      <point x="55" y="482"/>
      <point x="55" y="381" type="curve" smooth="yes"/>
      <point x="55" y="355" type="line"/>
      <point x="164" y="316" type="line"/>
      <point x="163" y="312" type="line"/>
      <point x="101" y="293"/>
      <point x="65" y="261"/>
      <point x="65" y="183" type="curve" smooth="yes"/>
      <point x="65" y="118" type="line" smooth="yes"/>
      <point x="65" y="31"/>
      <point x="120" y="-10"/>
    </contour>
  </outline>
</glyph>
<glyph name="doDek-thai" format="2">
  <advance width="634"/>
  <unicode hex="0E14"/>
  <anchor x="564" y="0" name="bottom"/>
  <anchor x="543" y="536" name="top"/>
  <outline>
    <contour>
      <point x="267" y="-10" type="curve" smooth="yes"/>
      <point x="294" y="-10"/>
      <point x="327" y="-7"/>
      <point x="348" y="3" type="curve"/>
      <point x="334" y="115" type="line"/>
      <point x="323" y="112"/>
      <point x="308" y="110"/>
      <point x="294" y="110" type="curve" smooth="yes"/>
      <point x="224" y="110"/>
      <point x="200" y="174"/>
      <point x="200" y="269" type="curve" smooth="yes"/>
      <point x="200" y="406"/>
      <point x="247" y="441"/>
      <point x="317" y="441" type="curve" smooth="yes"/>
      <point x="386" y="441"/>
      <point x="414" y="407"/>
      <point x="414" y="345" type="curve" smooth="yes"/>
      <point x="414" y="0" type="line"/>
      <point x="564" y="0" type="line"/>
      <point x="564" y="357" type="line" smooth="yes"/>
      <point x="564" y="481"/>
      <point x="496" y="561"/>
      <point x="317" y="561" type="curve" smooth="yes"/>
      <point x="159" y="561"/>
      <point x="48" y="500"/>
      <point x="48" y="267" type="curve" smooth="yes"/>
      <point x="48" y="104"/>
      <point x="104" y="-10"/>
    </contour>
  </outline>
</glyph>
<glyph name="toTao-thai" format="2">
  <advance width="654"/>
  <unicode hex="0E15"/>
  <note>
uni0E15
</note>
  <anchor x="585" y="0" name="bottom"/>
  <anchor x="561" y="536" name="top"/>
  <outline>
    <contour>
      <point x="279" y="-10" type="curve" smooth="yes"/>
      <point x="309" y="-10"/>
      <point x="334" y="-6"/>
      <point x="356" y="3" type="curve"/>
      <point x="341" y="110" type="line"/>
      <point x="331" y="106"/>
      <point x="318" y="104"/>
      <point x="302" y="104" type="curve" smooth="yes"/>
      <point x="224" y="104"/>
      <point x="204" y="167"/>
      <point x="204" y="280" type="curve" smooth="yes"/>
      <point x="204" y="395"/>
      <point x="222" y="438"/>
      <point x="256" y="438" type="curve" smooth="yes"/>
      <point x="276" y="438"/>
      <point x="292" y="428"/>
      <point x="297" y="390" type="curve"/>
      <point x="356" y="390" type="line"/>
      <point x="360" y="425"/>
      <point x="372" y="438"/>
      <point x="397" y="438" type="curve" smooth="yes"/>
      <point x="419" y="438"/>
      <point x="434" y="426"/>
      <point x="434" y="385" type="curve" smooth="yes"/>
      <point x="434" y="0" type="line"/>
      <point x="584" y="0" type="line"/>
      <point x="584" y="413" type="line" smooth="yes"/>
      <point x="584" y="507"/>
      <point x="538" y="558"/>
      <point x="446" y="558" type="curve" smooth="yes"/>
      <point x="397" y="558"/>
      <point x="350" y="544"/>
      <point x="331" y="495" type="curve"/>
      <point x="327" y="495" type="line"/>
      <point x="306" y="543"/>
      <point x="270" y="558"/>
      <point x="223" y="558" type="curve" smooth="yes"/>
      <point x="110" y="558"/>
      <point x="52" y="475"/>
      <point x="52" y="281" type="curve" smooth="yes"/>
      <point x="52" y="107"/>
      <point x="101" y="-10"/>
    </contour>
  </outline>
</glyph>
<glyph name="thoThung-thai" format="2">
  <advance width="625"/>
  <unicode hex="0E16"/>
  <anchor x="555" y="0" name="bottom"/>
  <anchor x="539" y="536" name="top"/>
  <outline>
    <contour>
      <point x="206" y="-10" type="curve" smooth="yes"/>
      <point x="242" y="-10"/>
      <point x="275" y="-3"/>
      <point x="300" y="10" type="curve"/>
      <point x="286" y="99" type="line"/>
      <point x="276" y="95"/>
      <point x="263" y="93"/>
      <point x="251" y="93" type="curve" smooth="yes"/>
      <point x="223" y="93"/>
      <point x="211" y="105"/>
      <point x="211" y="134" type="curve" smooth="yes"/>
      <point x="211" y="199" type="line" smooth="yes"/>
      <point x="211" y="253"/>
      <point x="237" y="269"/>
      <point x="286" y="270" type="curve"/>
      <point x="296" y="334" type="line"/>
      <point x="209" y="374" type="line"/>
      <point x="211" y="411"/>
      <point x="241" y="441"/>
      <point x="303" y="441" type="curve" smooth="yes"/>
      <point x="368" y="441"/>
      <point x="405" y="408"/>
      <point x="405" y="341" type="curve" smooth="yes"/>
      <point x="405" y="0" type="line"/>
      <point x="555" y="0" type="line"/>
      <point x="555" y="350" type="line" smooth="yes"/>
      <point x="555" y="491"/>
      <point x="459" y="561"/>
      <point x="307" y="561" type="curve" smooth="yes"/>
      <point x="144" y="561"/>
      <point x="55" y="479"/>
      <point x="55" y="381" type="curve" smooth="yes"/>
      <point x="55" y="355" type="line"/>
      <point x="164" y="316" type="line"/>
      <point x="163" y="312" type="line"/>
      <point x="101" y="293"/>
      <point x="65" y="257"/>
      <point x="65" y="179" type="curve" smooth="yes"/>
      <point x="65" y="118" type="line" smooth="yes"/>
      <point x="65" y="31"/>
      <point x="120" y="-10"/>
    </contour>
  </outline>
</glyph>
<glyph name="thoThahan-thai" format="2">
  <advance width="644"/>
  <unicode hex="0E17"/>
  <anchor x="574" y="0" name="bottom"/>
  <anchor x="551" y="536" name="top"/>
  <outline>
    <contour>
      <point x="77" y="0" type="line"/>
      <point x="227" y="0" type="line"/>
      <point x="227" y="262" type="line" smooth="yes"/>
      <point x="227" y="371"/>
      <point x="266" y="428"/>
      <point x="336" y="428" type="curve" smooth="yes"/>
      <point x="393" y="428"/>
      <point x="424" y="398"/>
      <point x="424" y="323" type="curve" smooth="yes"/>
      <point x="424" y="0" type="line"/>
      <point x="574" y="0" type="line"/>
      <point x="574" y="353" type="line" smooth="yes"/>
      <point x="574" y="491"/>
      <point x="510" y="558"/>
      <point x="383" y="558" type="curve" smooth="yes"/>
      <point x="294" y="558"/>
      <point x="238" y="517"/>
      <point x="215" y="462" type="curve"/>
      <point x="207" y="462" type="line"/>
      <point x="187" y="548" type="line"/>
      <point x="77" y="548" type="line"/>
    </contour>
  </outline>
</glyph>
<glyph name="thoThong-thai" format="2">
  <advance width="559"/>
  <unicode hex="0E18"/>
  <anchor x="464" y="0" name="bottom"/>
  <anchor x="497" y="536" name="top"/>
  <outline>
    <contour>
      <point x="286" y="-13" type="curve" smooth="yes"/>
      <point x="464" y="-13"/>
      <point x="520" y="65"/>
      <point x="520" y="169" type="curve" smooth="yes"/>
      <point x="520" y="281"/>
      <point x="454" y="323"/>
      <point x="341" y="357" type="curve" smooth="yes"/>
      <point x="256" y="382"/>
      <point x="199" y="386"/>
      <point x="199" y="418" type="curve" smooth="yes"/>
      <point x="199" y="443"/>
      <point x="233" y="451"/>
      <point x="277" y="451" type="curve" smooth="yes"/>
      <point x="355" y="451"/>
      <point x="439" y="430"/>
      <point x="478" y="414" type="curve"/>
      <point x="478" y="529" type="line"/>
      <point x="443" y="544"/>
      <point x="376" y="561"/>
      <point x="285" y="561" type="curve" smooth="yes"/>
      <point x="141" y="561"/>
      <point x="49" y="519"/>
      <point x="49" y="409" type="curve" smooth="yes"/>
      <point x="49" y="318"/>
      <point x="112" y="291"/>
      <point x="221" y="262" type="curve" smooth="yes"/>
      <point x="320" y="236"/>
      <point x="377" y="230"/>
      <point x="377" y="166" type="curve" smooth="yes"/>
      <point x="377" y="109"/>
      <point x="334" y="92"/>
      <point x="279" y="92" type="curve" smooth="yes"/>
      <point x="247" y="92"/>
      <point x="215" y="98"/>
      <point x="195" y="105" type="curve"/>
      <point x="195" y="241" type="line"/>
      <point x="67" y="241" type="line"/>
      <point x="67" y="25" type="line"/>
      <point x="126" y="4"/>
      <point x="203" y="-13"/>
    </contour>
  </outline>
</glyph>
<glyph name="poPla-thai" format="2">
  <advance width="635"/>
  <unicode hex="0E1B"/>
  <note>
uni0E1B
</note>
  <anchor x="538" y="0" name="bottom"/>
  <anchor x="368" y="536" name="top"/>
  <outline>
    <contour>
      <point x="317" y="-13" type="curve" smooth="yes"/>
      <point x="490" y="-13"/>
      <point x="564" y="70"/>
      <point x="564" y="223" type="curve" smooth="yes"/>
      <point x="564" y="745" type="line"/>
      <point x="414" y="745" type="line"/>
      <point x="414" y="215" type="line" smooth="yes"/>
      <point x="414" y="144"/>
      <point x="384" y="107"/>
      <point x="317" y="107" type="curve" smooth="yes"/>
      <point x="250" y="107"/>
      <point x="220" y="144"/>
      <point x="220" y="215" type="curve" smooth="yes"/>
      <point x="220" y="548" type="line"/>
      <point x="70" y="548" type="line"/>
      <point x="70" y="223" type="line" smooth="yes"/>
      <point x="70" y="70"/>
      <point x="143" y="-13"/>
    </contour>
  </outline>
</glyph>
<glyph name="foFa-thai" format="2">
  <advance width="683"/>
  <unicode hex="0E1D"/>
  <anchor x="603" y="0" name="bottom"/>
  <anchor x="416" y="536" name="top"/>
  <outline>
    <contour>
      <point x="75" y="0" type="line"/>
      <point x="218" y="0" type="line"/>
      <point x="337" y="218" type="line"/>
      <point x="341" y="218" type="line"/>
      <point x="460" y="0" type="line"/>
      <point x="603" y="0" type="line"/>
      <point x="603" y="745" type="line"/>
      <point x="463" y="745" type="line"/>
      <point x="463" y="314" type="line" smooth="yes"/>
      <point x="463" y="281"/>
      <point x="465" y="237"/>
      <point x="472" y="168" type="curve"/>
      <point x="467" y="168" type="line"/>
      <point x="445" y="218"/>
      <point x="431" y="245"/>
      <point x="404" y="294" type="curve" smooth="yes"/>
      <point x="367" y="361" type="line"/>
      <point x="311" y="361" type="line"/>
      <point x="274" y="294" type="line" smooth="yes"/>
      <point x="258" y="264"/>
      <point x="238" y="231"/>
      <point x="211" y="168" type="curve"/>
      <point x="206" y="168" type="line"/>
      <point x="213" y="237"/>
      <point x="215" y="281"/>
      <point x="215" y="314" type="curve" smooth="yes"/>
      <point x="215" y="407" type="line" smooth="yes"/>
      <point x="215" y="432"/>
      <point x="223" y="446"/>
      <point x="249" y="446" type="curve" smooth="yes"/>
      <point x="256" y="446"/>
      <point x="267" y="445"/>
      <point x="278" y="442" type="curve"/>
      <point x="298" y="540" type="line"/>
      <point x="279" y="549"/>
      <point x="249" y="558"/>
      <point x="212" y="558" type="curve" smooth="yes"/>
      <point x="132" y="558"/>
      <point x="75" y="528"/>
      <point x="75" y="426" type="curve" smooth="yes"/>
    </contour>
  </outline>
</glyph>
<glyph name="phoPhan-thai" format="2">
  <advance width="727"/>
  <unicode hex="0E1E"/>
  <note>
uni0E1E
</note>
  <anchor x="602" y="0" name="bottom"/>
  <anchor x="656" y="536" name="top"/>
  <outline>
    <contour>
      <point x="126" y="0" type="line"/>
      <point x="269" y="0" type="line"/>
      <point x="333" y="223" type="line" smooth="yes"/>
      <point x="349" y="279"/>
      <point x="354" y="315"/>
      <point x="362" y="361" type="curve"/>
      <point x="366" y="361" type="line"/>
      <point x="372" y="315"/>
      <point x="378" y="275"/>
      <point x="392" y="223" type="curve" smooth="yes"/>
      <point x="455" y="0" type="line"/>
      <point x="602" y="0" type="line"/>
      <point x="696" y="548" type="line"/>
      <point x="551" y="548" type="line"/>
      <point x="523" y="355" type="line" smooth="yes"/>
      <point x="518" y="323"/>
      <point x="513" y="266"/>
      <point x="507" y="193" type="curve"/>
      <point x="504" y="193" type="line"/>
      <point x="487" y="266"/>
      <point x="473" y="322"/>
      <point x="463" y="358" type="curve" smooth="yes"/>
      <point x="409" y="548" type="line"/>
      <point x="318" y="548" type="line"/>
      <point x="264" y="358" type="line" smooth="yes"/>
      <point x="254" y="322"/>
      <point x="240" y="266"/>
      <point x="223" y="193" type="curve"/>
      <point x="220" y="193" type="line"/>
      <point x="214" y="266"/>
      <point x="208" y="323"/>
      <point x="204" y="355" type="curve" smooth="yes"/>
      <point x="177" y="548" type="line"/>
      <point x="31" y="548" type="line"/>
    </contour>
  </outline>
</glyph>
<glyph name="foFan-thai" format="2">
  <advance width="718"/>
  <unicode hex="0E1F"/>
  <anchor x="600" y="0" name="bottom"/>
  <anchor x="461" y="536" name="top"/>
  <outline>
    <contour>
      <point x="124" y="0" type="line"/>
      <point x="267" y="0" type="line"/>
      <point x="331" y="223" type="line" smooth="yes"/>
      <point x="347" y="279"/>
      <point x="353" y="315"/>
      <point x="360" y="361" type="curve"/>
      <point x="364" y="361" type="line"/>
      <point x="371" y="315"/>
      <point x="376" y="274"/>
      <point x="390" y="223" type="curve" smooth="yes"/>
      <point x="453" y="0" type="line"/>
      <point x="600" y="0" type="line"/>
      <point x="710" y="745" type="line"/>
      <point x="566" y="745" type="line"/>
      <point x="520" y="355" type="line" smooth="yes"/>
      <point x="517" y="323"/>
      <point x="511" y="265"/>
      <point x="505" y="193" type="curve"/>
      <point x="502" y="193" type="line"/>
      <point x="487" y="255"/>
      <point x="474" y="311"/>
      <point x="461" y="358" type="curve" smooth="yes"/>
      <point x="408" y="548" type="line"/>
      <point x="317" y="548" type="line"/>
      <point x="263" y="358" type="line" smooth="yes"/>
      <point x="250" y="311"/>
      <point x="236" y="255"/>
      <point x="222" y="193" type="curve"/>
      <point x="218" y="193" type="line"/>
      <point x="213" y="262"/>
      <point x="205" y="331"/>
      <point x="202" y="355" type="curve" smooth="yes"/>
      <point x="177" y="548" type="line"/>
      <point x="31" y="548" type="line"/>
    </contour>
  </outline>
</glyph>
<glyph name="phoSamphao-thai" format="2">
  <advance width="637"/>
  <unicode hex="0E20"/>
  <anchor x="567" y="0" name="bottom"/>
  <anchor x="551" y="536" name="top"/>
  <outline>
    <contour>
      <point x="114" y="-10" type="curve" smooth="yes"/>
      <point x="187" y="-10"/>
      <point x="240" y="22"/>
      <point x="240" y="108" type="curve" smooth="yes"/>
      <point x="240" y="192" type="line" smooth="yes"/>
      <point x="240" y="246"/>
      <point x="259" y="270"/>
      <point x="297" y="270" type="curve"/>
      <point x="308" y="335" type="line"/>
      <point x="221" y="374" type="line"/>
      <point x="223" y="411"/>
      <point x="253" y="441"/>
      <point x="315" y="441" type="curve" smooth="yes"/>
      <point x="380" y="441"/>
      <point x="417" y="408"/>
      <point x="417" y="341" type="curve" smooth="yes"/>
      <point x="417" y="0" type="line"/>
      <point x="567" y="0" type="line"/>
      <point x="567" y="350" type="line" smooth="yes"/>
      <point x="567" y="491"/>
      <point x="471" y="561"/>
      <point x="317" y="561" type="curve" smooth="yes"/>
      <point x="152" y="561"/>
      <point x="67" y="479"/>
      <point x="67" y="381" type="curve" smooth="yes"/>
      <point x="67" y="355" type="line"/>
      <point x="176" y="316" type="line"/>
      <point x="175" y="312" type="line"/>
      <point x="120" y="298"/>
      <point x="94" y="263"/>
      <point x="94" y="198" type="curve" smooth="yes"/>
      <point x="94" y="125" type="line" smooth="yes"/>
      <point x="94" y="101"/>
      <point x="84" y="90"/>
      <point x="62" y="90" type="curve" smooth="yes"/>
      <point x="54" y="90"/>
      <point x="45" y="91"/>
      <point x="36" y="94" type="curve"/>
      <point x="22" y="11" type="line"/>
      <point x="46" y="-2"/>
      <point x="76" y="-10"/>
    </contour>
  </outline>
</glyph>
<glyph name="moMa-thai" format="2">
  <advance width="646"/>
  <unicode hex="0E21"/>
  <note>
uni0E21
</note>
  <anchor x="560" y="0" name="bottom"/>
  <anchor x="581" y="536" name="top"/>
  <outline>
    <contour>
      <point x="393" y="-10" type="curve" smooth="yes"/>
      <point x="513" y="-10"/>
      <point x="576" y="62"/>
      <point x="576" y="192" type="curve" smooth="yes"/>
      <point x="576" y="548" type="line"/>
      <point x="426" y="548" type="line"/>
      <point x="426" y="225" type="line" smooth="yes"/>
      <point x="426" y="151"/>
      <point x="396" y="120"/>
      <point x="340" y="120" type="curve" smooth="yes"/>
      <point x="269" y="120"/>
      <point x="229" y="172"/>
      <point x="229" y="286" type="curve" smooth="yes"/>
      <point x="229" y="548" type="line"/>
      <point x="79" y="548" type="line"/>
      <point x="79" y="0" type="line"/>
      <point x="193" y="0" type="line"/>
      <point x="209" y="86" type="line"/>
      <point x="217" y="86" type="line"/>
      <point x="241" y="30"/>
      <point x="298" y="-10"/>
    </contour>
  </outline>
</glyph>
<glyph name="yoYak-thai" format="2">
  <advance width="622"/>
  <unicode hex="0E22"/>
  <note>
uni0E22
</note>
  <anchor x="525" y="0" name="bottom"/>
  <anchor x="551" y="536" name="top"/>
  <outline>
    <contour>
      <point x="302" y="-13" type="curve" smooth="yes"/>
      <point x="474" y="-13"/>
      <point x="552" y="51"/>
      <point x="552" y="188" type="curve" smooth="yes"/>
      <point x="552" y="548" type="line"/>
      <point x="402" y="548" type="line"/>
      <point x="402" y="183" type="line" smooth="yes"/>
      <point x="402" y="137"/>
      <point x="379" y="101"/>
      <point x="305" y="101" type="curve" smooth="yes"/>
      <point x="227" y="101"/>
      <point x="207" y="140"/>
      <point x="207" y="177" type="curve" smooth="yes"/>
      <point x="207" y="222"/>
      <point x="236" y="241"/>
      <point x="293" y="241" type="curve" smooth="yes"/>
      <point x="314" y="241" type="line"/>
      <point x="314" y="334" type="line"/>
      <point x="293" y="334" type="line" smooth="yes"/>
      <point x="249" y="334"/>
      <point x="204" y="345"/>
      <point x="204" y="394" type="curve" smooth="yes"/>
      <point x="204" y="425"/>
      <point x="223" y="446"/>
      <point x="265" y="446" type="curve" smooth="yes"/>
      <point x="283" y="446"/>
      <point x="303" y="442"/>
      <point x="314" y="439" type="curve"/>
      <point x="337" y="540" type="line"/>
      <point x="315" y="550"/>
      <point x="273" y="557"/>
      <point x="232" y="557" type="curve" smooth="yes"/>
      <point x="103" y="557"/>
      <point x="55" y="491"/>
      <point x="55" y="417" type="curve" smooth="yes"/>
      <point x="55" y="345"/>
      <point x="101" y="312"/>
      <point x="147" y="297" type="curve"/>
      <point x="147" y="291" type="line"/>
      <point x="102" y="280"/>
      <point x="55" y="246"/>
      <point x="55" y="159" type="curve" smooth="yes"/>
      <point x="55" y="56"/>
      <point x="122" y="-13"/>
    </contour>
  </outline>
</glyph>
<glyph name="roRua-thai" format="2">
  <advance width="518"/>
  <unicode hex="0E23"/>
  <note>
uni0E23
</note>
  <anchor x="430" y="0" name="bottom"/>
  <anchor x="450" y="536" name="top"/>
  <outline>
    <contour>
      <point x="258" y="-13" type="curve" smooth="yes"/>
      <point x="430" y="-13"/>
      <point x="483" y="70"/>
      <point x="483" y="160" type="curve" smooth="yes"/>
      <point x="483" y="254"/>
      <point x="426" y="297"/>
      <point x="322" y="333" type="curve" smooth="yes"/>
      <point x="243" y="360"/>
      <point x="198" y="372"/>
      <point x="198" y="404" type="curve" smooth="yes"/>
      <point x="198" y="430"/>
      <point x="226" y="446"/>
      <point x="281" y="446" type="curve" smooth="yes"/>
      <point x="339" y="446"/>
      <point x="410" y="427"/>
      <point x="445" y="411" type="curve"/>
      <point x="445" y="529" type="line"/>
      <point x="412" y="547"/>
      <point x="349" y="561"/>
      <point x="274" y="561" type="curve" smooth="yes"/>
      <point x="137" y="561"/>
      <point x="48" y="510"/>
      <point x="48" y="401" type="curve" smooth="yes"/>
      <point x="48" y="304"/>
      <point x="112" y="263"/>
      <point x="218" y="226" type="curve" smooth="yes"/>
      <point x="290" y="201"/>
      <point x="333" y="187"/>
      <point x="333" y="152" type="curve" smooth="yes"/>
      <point x="333" y="120"/>
      <point x="305" y="105"/>
      <point x="252" y="105" type="curve" smooth="yes"/>
      <point x="183" y="105"/>
      <point x="116" y="134"/>
      <point x="76" y="156" type="curve"/>
      <point x="34" y="37" type="line"/>
      <point x="95" y="5"/>
      <point x="179" y="-13"/>
    </contour>
  </outline>
</glyph>
<glyph name="ru-thai" format="2">
  <advance width="625"/>
  <unicode hex="0E24"/>
  <anchor x="555" y="-194" name="bottom"/>
  <anchor x="538" y="536" name="top"/>
  <outline>
    <contour>
      <point x="405" y="-212" type="line"/>
      <point x="555" y="-212" type="line"/>
      <point x="555" y="100" type="line"/>
      <point x="405" y="100" type="line"/>
    </contour>
    <component base="thoThung-thai"/>
  </outline>
</glyph>
<glyph name="loLing-thai" format="2">
  <advance width="599"/>
  <unicode hex="0E25"/>
  <anchor x="529" y="0" name="bottom"/>
  <anchor x="519" y="536" name="top"/>
  <outline>
    <contour>
      <point x="382" y="0" type="line"/>
      <point x="529" y="0" type="line"/>
      <point x="529" y="350" type="line" smooth="yes"/>
      <point x="529" y="510"/>
      <point x="429" y="561"/>
      <point x="294" y="561" type="curve" smooth="yes"/>
      <point x="200" y="561"/>
      <point x="127" y="537"/>
      <point x="89" y="518" type="curve"/>
      <point x="89" y="394" type="line"/>
      <point x="137" y="422"/>
      <point x="207" y="446"/>
      <point x="276" y="446" type="curve" smooth="yes"/>
      <point x="348" y="446"/>
      <point x="382" y="420"/>
      <point x="382" y="356" type="curve" smooth="yes"/>
    </contour>
    <contour>
      <point x="218" y="-10" type="curve" smooth="yes"/>
      <point x="255" y="-10"/>
      <point x="292" y="-4"/>
      <point x="317" y="5" type="curve"/>
      <point x="304" y="99" type="line"/>
      <point x="291" y="95"/>
      <point x="274" y="91"/>
      <point x="258" y="91" type="curve" smooth="yes"/>
      <point x="216" y="91"/>
      <point x="188" y="111"/>
      <point x="188" y="151" type="curve" smooth="yes"/>
      <point x="188" y="191"/>
      <point x="215" y="215"/>
      <point x="295" y="223" type="curve" smooth="yes"/>
      <point x="406" y="234" type="line"/>
      <point x="406" y="342" type="line"/>
      <point x="278" y="332" type="line" smooth="yes"/>
      <point x="112" y="319"/>
      <point x="39" y="253"/>
      <point x="39" y="146" type="curve" smooth="yes"/>
      <point x="39" y="47"/>
      <point x="103" y="-10"/>
    </contour>
  </outline>
</glyph>
<glyph name="woWaen-thai" format="2">
  <advance width="514"/>
  <unicode hex="0E27"/>
  <anchor x="397" y="0" name="bottom"/>
  <anchor x="458" y="536" name="top"/>
  <outline>
    <contour>
      <point x="216" y="-13" type="curve" smooth="yes"/>
      <point x="375" y="-13"/>
      <point x="465" y="87"/>
      <point x="465" y="277" type="curve" smooth="yes"/>
      <point x="465" y="454"/>
      <point x="387" y="561"/>
      <point x="203" y="561" type="curve" smooth="yes"/>
      <point x="144" y="561"/>
      <point x="91" y="550"/>
      <point x="50" y="531" type="curve"/>
      <point x="50" y="408" type="line"/>
      <point x="81" y="427"/>
      <point x="132" y="441"/>
      <point x="176" y="441" type="curve" smooth="yes"/>
      <point x="269" y="441"/>
      <point x="312" y="383"/>
      <point x="312" y="277" type="curve" smooth="yes"/>
      <point x="312" y="164"/>
      <point x="264" y="107"/>
      <point x="190" y="107" type="curve" smooth="yes"/>
      <point x="150" y="107"/>
      <point x="105" y="123"/>
      <point x="76" y="140" type="curve"/>
      <point x="36" y="31" type="line"/>
      <point x="88" y="3"/>
      <point x="148" y="-13"/>
    </contour>
  </outline>
</glyph>
<glyph name="soSala-thai" format="2">
  <advance width="659"/>
  <unicode hex="0E28"/>
  <anchor x="574" y="0" name="bottom"/>
  <anchor x="551" y="536" name="top"/>
  <outline>
    <contour>
      <point x="70" y="0" type="line"/>
      <point x="219" y="0" type="line"/>
      <point x="219" y="68" type="line" smooth="yes"/>
      <point x="219" y="135"/>
      <point x="241" y="191"/>
      <point x="340" y="191" type="curve" smooth="yes"/>
      <point x="364" y="191" type="line"/>
      <point x="364" y="303" type="line"/>
      <point x="340" y="303" type="line" smooth="yes"/>
      <point x="278" y="303"/>
      <point x="248" y="291"/>
      <point x="222" y="239" type="curve"/>
      <point x="219" y="240" type="line"/>
      <point x="219" y="327" type="line" smooth="yes"/>
      <point x="219" y="398"/>
      <point x="250" y="441"/>
      <point x="324" y="441" type="curve" smooth="yes"/>
      <point x="397" y="441"/>
      <point x="428" y="398"/>
      <point x="428" y="327" type="curve" smooth="yes"/>
      <point x="428" y="0" type="line"/>
      <point x="577" y="0" type="line"/>
      <point x="577" y="324" type="line" smooth="yes"/>
      <point x="577" y="405"/>
      <point x="556" y="467"/>
      <point x="493" y="491" type="curve"/>
      <point x="462" y="543"/>
      <point x="401" y="561"/>
      <point x="325" y="561" type="curve" smooth="yes"/>
      <point x="148" y="561"/>
      <point x="70" y="478"/>
      <point x="70" y="325" type="curve" smooth="yes"/>
    </contour>
    <contour>
      <point x="498" y="439" type="line"/>
      <point x="587" y="464"/>
      <point x="623" y="522"/>
      <point x="623" y="584" type="curve"/>
      <point x="492" y="584" type="line"/>
      <point x="491" y="548"/>
      <point x="463" y="524"/>
      <point x="416" y="508" type="curve"/>
    </contour>
  </outline>
</glyph>
<glyph name="soRusi-thai" format="2">
  <advance width="675"/>
  <unicode hex="0E29"/>
  <anchor x="552" y="0" name="bottom"/>
  <anchor x="582" y="536" name="top"/>
  <outline>
    <contour>
      <point x="326" y="-13" type="curve" smooth="yes"/>
      <point x="508" y="-13"/>
      <point x="581" y="71"/>
      <point x="581" y="225" type="curve" smooth="yes"/>
      <point x="581" y="548" type="line"/>
      <point x="432" y="548" type="line"/>
      <point x="432" y="217" type="line" smooth="yes"/>
      <point x="432" y="139"/>
      <point x="402" y="106"/>
      <point x="328" y="106" type="curve" smooth="yes"/>
      <point x="250" y="106"/>
      <point x="219" y="144"/>
      <point x="219" y="217" type="curve" smooth="yes"/>
      <point x="219" y="548" type="line"/>
      <point x="70" y="548" type="line"/>
      <point x="70" y="225" type="line" smooth="yes"/>
      <point x="70" y="71"/>
      <point x="143" y="-13"/>
    </contour>
    <contour>
      <point x="390" y="218" type="curve" smooth="yes"/>
      <point x="639" y="218" type="line"/>
      <point x="639" y="315" type="line"/>
      <point x="399" y="315" type="line" smooth="yes"/>
      <point x="380" y="315"/>
      <point x="369" y="329"/>
      <point x="369" y="347" type="curve" smooth="yes"/>
      <point x="369" y="356"/>
      <point x="371" y="367"/>
      <point x="375" y="375" type="curve"/>
      <point x="286" y="393" type="line"/>
      <point x="273" y="377"/>
      <point x="266" y="347"/>
      <point x="266" y="323" type="curve" smooth="yes"/>
      <point x="266" y="272"/>
      <point x="295" y="218"/>
    </contour>
  </outline>
</glyph>
<glyph name="soSua-thai" format="2">
  <advance width="602"/>
  <unicode hex="0E2A"/>
  <note>
uni0E2A
</note>
  <anchor x="529" y="0" name="bottom"/>
  <anchor x="529" y="536" name="top"/>
  <outline>
    <contour>
      <point x="382" y="0" type="line"/>
      <point x="529" y="0" type="line"/>
      <point x="529" y="350" type="line" smooth="yes"/>
      <point x="529" y="428"/>
      <point x="506" y="480"/>
      <point x="450" y="497" type="curve"/>
      <point x="424" y="548"/>
      <point x="364" y="561"/>
      <point x="293" y="561" type="curve" smooth="yes"/>
      <point x="201" y="561"/>
      <point x="127" y="537"/>
      <point x="89" y="518" type="curve"/>
      <point x="89" y="394" type="line"/>
      <point x="137" y="422"/>
      <point x="207" y="446"/>
      <point x="276" y="446" type="curve" smooth="yes"/>
      <point x="348" y="446"/>
      <point x="382" y="420"/>
      <point x="382" y="356" type="curve" smooth="yes"/>
    </contour>
    <contour>
      <point x="218" y="-10" type="curve" smooth="yes"/>
      <point x="255" y="-10"/>
      <point x="292" y="-4"/>
      <point x="317" y="5" type="curve"/>
      <point x="304" y="99" type="line"/>
      <point x="291" y="95"/>
      <point x="274" y="91"/>
      <point x="258" y="91" type="curve" smooth="yes"/>
      <point x="216" y="91"/>
      <point x="188" y="111"/>
      <point x="188" y="151" type="curve" smooth="yes"/>
      <point x="188" y="191"/>
      <point x="215" y="215"/>
      <point x="295" y="223" type="curve" smooth="yes"/>
      <point x="406" y="234" type="line"/>
      <point x="406" y="342" type="line"/>
      <point x="278" y="332" type="line" smooth="yes"/>
      <point x="112" y="319"/>
      <point x="39" y="253"/>
      <point x="39" y="146" type="curve" smooth="yes"/>
      <point x="39" y="47"/>
      <point x="103" y="-10"/>
    </contour>
    <contour>
      <point x="447" y="439" type="line"/>
      <point x="536" y="464"/>
      <point x="572" y="522"/>
      <point x="572" y="584" type="curve"/>
      <point x="441" y="584" type="line"/>
      <point x="440" y="548"/>
      <point x="412" y="524"/>
      <point x="365" y="508" type="curve"/>
    </contour>
  </outline>
</glyph>
<glyph name="hoHip-thai" format="2">
  <advance width="622"/>
  <unicode hex="0E2B"/>
  <note>
uni0E2B
</note>
  <anchor x="564" y="0" name="bottom"/>
  <anchor x="535" y="536" name="top"/>
  <outline>
    <contour>
      <point x="79" y="0" type="line"/>
      <point x="227" y="0" type="line"/>
      <point x="227" y="167" type="line"/>
      <point x="566" y="543" type="line"/>
      <point x="566" y="548" type="line"/>
      <point x="401" y="548" type="line"/>
      <point x="231" y="343" type="line"/>
      <point x="227" y="343" type="line"/>
      <point x="227" y="548" type="line"/>
      <point x="79" y="548" type="line"/>
    </contour>
    <contour>
      <point x="414" y="0" type="line"/>
      <point x="564" y="0" type="line"/>
      <point x="564" y="204" type="line" smooth="yes"/>
      <point x="564" y="307"/>
      <point x="502" y="385"/>
      <point x="383" y="385" type="curve"/>
      <point x="295" y="281" type="line"/>
      <point x="372" y="281"/>
      <point x="414" y="252"/>
      <point x="414" y="181" type="curve" smooth="yes"/>
    </contour>
  </outline>
</glyph>
<glyph name="loChula-thai" format="2">
  <advance width="709"/>
  <unicode hex="0E2C"/>
  <anchor x="598" y="0" name="bottom"/>
  <outline>
    <contour>
      <point x="111" y="0" type="line"/>
      <point x="260" y="0" type="line"/>
      <point x="313" y="158" type="line" smooth="yes"/>
      <point x="328" y="202"/>
      <point x="340" y="242"/>
      <point x="352" y="311" type="curve"/>
      <point x="356" y="311" type="line"/>
      <point x="368" y="244"/>
      <point x="379" y="206"/>
      <point x="394" y="159" type="curve" smooth="yes"/>
      <point x="445" y="0" type="line"/>
      <point x="601" y="0" type="line"/>
      <point x="667" y="422" type="line" smooth="yes"/>
      <point x="675" y="473"/>
      <point x="661" y="534"/>
      <point x="603" y="556" type="curve"/>
      <point x="603" y="560" type="line"/>
      <point x="681" y="574"/>
      <point x="712" y="634"/>
      <point x="712" y="709" type="curve" smooth="yes"/>
      <point x="712" y="714" type="line"/>
      <point x="569" y="714" type="line"/>
      <point x="569" y="709" type="line" smooth="yes"/>
      <point x="569" y="653"/>
      <point x="542" y="613"/>
      <point x="450" y="613" type="curve" smooth="yes"/>
      <point x="370" y="613" type="line"/>
      <point x="370" y="515" type="line"/>
      <point x="432" y="515" type="line" smooth="yes"/>
      <point x="505" y="515"/>
      <point x="533" y="486"/>
      <point x="521" y="408" type="curve" smooth="yes"/>
      <point x="508" y="323" type="line" smooth="yes"/>
      <point x="502" y="282"/>
      <point x="497" y="222"/>
      <point x="495" y="162" type="curve"/>
      <point x="491" y="162" type="line"/>
      <point x="474" y="223"/>
      <point x="459" y="265"/>
      <point x="443" y="310" type="curve" smooth="yes"/>
      <point x="397" y="437" type="line"/>
      <point x="312" y="437" type="line"/>
      <point x="266" y="310" type="line" smooth="yes"/>
      <point x="249" y="264"/>
      <point x="235" y="223"/>
      <point x="217" y="162" type="curve"/>
      <point x="214" y="162" type="line"/>
      <point x="214" y="232"/>
      <point x="208" y="291"/>
      <point x="204" y="324" type="curve" smooth="yes"/>
      <point x="179" y="548" type="line"/>
      <point x="31" y="548" type="line"/>
    </contour>
  </outline>
</glyph>
<glyph name="oAng-thai" format="2">
  <advance width="593"/>
  <unicode hex="0E2D"/>
  <note>
uni0E2D
</note>
  <anchor x="466" y="0" name="bottom"/>
  <anchor x="511" y="536" name="top"/>
  <outline>
    <contour>
      <point x="288" y="-13" type="curve" smooth="yes"/>
      <point x="471" y="-13"/>
      <point x="547" y="89"/>
      <point x="547" y="271" type="curve" smooth="yes"/>
      <point x="547" y="448"/>
      <point x="470" y="561"/>
      <point x="276" y="561" type="curve" smooth="yes"/>
      <point x="202" y="561"/>
      <point x="119" y="544"/>
      <point x="76" y="521" type="curve"/>
      <point x="76" y="396" type="line"/>
      <point x="117" y="419"/>
      <point x="188" y="441"/>
      <point x="248" y="441" type="curve" smooth="yes"/>
      <point x="358" y="441"/>
      <point x="393" y="381"/>
      <point x="393" y="263" type="curve" smooth="yes"/>
      <point x="393" y="137"/>
      <point x="354" y="98"/>
      <point x="287" y="98" type="curve" smooth="yes"/>
      <point x="224" y="98"/>
      <point x="195" y="133"/>
      <point x="195" y="213" type="curve" smooth="yes"/>
      <point x="195" y="227" type="line"/>
      <point x="294" y="227" type="line"/>
      <point x="294" y="322" type="line"/>
      <point x="54" y="322" type="line"/>
      <point x="50" y="293"/>
      <point x="48" y="249"/>
      <point x="48" y="223" type="curve" smooth="yes"/>
      <point x="48" y="67"/>
      <point x="125" y="-13"/>
    </contour>
  </outline>
</glyph>
<glyph name="hoNokhuk-thai" format="2">
  <advance width="596"/>
  <unicode hex="0E2E"/>
  <anchor x="481" y="0" name="bottom"/>
  <anchor x="504" y="536" name="top"/>
  <outline>
    <contour>
      <point x="287" y="-13" type="curve" smooth="yes"/>
      <point x="471" y="-13"/>
      <point x="547" y="92"/>
      <point x="547" y="264" type="curve" smooth="yes"/>
      <point x="547" y="372"/>
      <point x="517" y="448"/>
      <point x="450" y="484" type="curve"/>
      <point x="413" y="540"/>
      <point x="350" y="561"/>
      <point x="273" y="561" type="curve" smooth="yes"/>
      <point x="202" y="561"/>
      <point x="118" y="544"/>
      <point x="75" y="521" type="curve"/>
      <point x="75" y="396" type="line"/>
      <point x="119" y="420"/>
      <point x="186" y="441"/>
      <point x="249" y="441" type="curve" smooth="yes"/>
      <point x="352" y="441"/>
      <point x="393" y="386"/>
      <point x="393" y="260" type="curve" smooth="yes"/>
      <point x="393" y="137"/>
      <point x="353" y="98"/>
      <point x="287" y="98" type="curve" smooth="yes"/>
      <point x="224" y="98"/>
      <point x="195" y="133"/>
      <point x="195" y="213" type="curve" smooth="yes"/>
      <point x="195" y="227" type="line"/>
      <point x="294" y="227" type="line"/>
      <point x="294" y="322" type="line"/>
      <point x="54" y="322" type="line"/>
      <point x="50" y="293"/>
      <point x="48" y="249"/>
      <point x="48" y="223" type="curve" smooth="yes"/>
      <point x="48" y="67"/>
      <point x="126" y="-13"/>
    </contour>
    <contour>
      <point x="445" y="439" type="line"/>
      <point x="534" y="464"/>
      <point x="570" y="522"/>
      <point x="570" y="584" type="curve"/>
      <point x="439" y="584" type="line"/>
      <point x="438" y="548"/>
      <point x="410" y="524"/>
      <point x="363" y="508" type="curve"/>
    </contour>
  </outline>
</glyph>
<glyph name="paiyannoi-thai" format="2">
  <advance width="543"/>
  <unicode hex="0E2F"/>
  <outline>
    <contour>
      <point x="317" y="0" type="line"/>
      <point x="467" y="0" type="line"/>
      <point x="467" y="548" type="line"/>
      <point x="317" y="548" type="line"/>
      <point x="317" y="416" type="line" smooth="yes"/>
      <point x="317" y="353"/>
      <point x="291" y="324"/>
      <point x="234" y="324" type="curve" smooth="yes"/>
      <point x="182" y="324"/>
      <point x="154" y="351"/>
      <point x="154" y="394" type="curve" smooth="yes"/>
      <point x="154" y="437"/>
      <point x="180" y="456"/>
      <point x="212" y="456" type="curve" smooth="yes"/>
      <point x="219" y="456"/>
      <point x="228" y="455"/>
      <point x="241" y="451" type="curve"/>
      <point x="252" y="546" type="line"/>
      <point x="224" y="556"/>
      <point x="198" y="558"/>
      <point x="179" y="558" type="curve" smooth="yes"/>
      <point x="75" y="558"/>
      <point x="13" y="495"/>
      <point x="13" y="391" type="curve" smooth="yes"/>
      <point x="13" y="269"/>
      <point x="99" y="211"/>
      <point x="199" y="211" type="curve" smooth="yes"/>
      <point x="288" y="211"/>
      <point x="350" y="253"/>
      <point x="353" y="325" type="curve"/>
      <point x="317" y="321" type="line"/>
    </contour>
  </outline>
</glyph>
<glyph name="saraA-thai" format="2">
  <advance width="358"/>
  <unicode hex="0E30"/>
  <outline>
    <contour>
      <point x="164" y="323" type="curve" smooth="yes"/>
      <point x="313" y="323" type="line"/>
      <point x="313" y="422" type="line"/>
      <point x="200" y="422" type="line" smooth="yes"/>
      <point x="173" y="422"/>
      <point x="164" y="432"/>
      <point x="164" y="450" type="curve" smooth="yes"/>
      <point x="164" y="462"/>
      <point x="166" y="473"/>
      <point x="169" y="482" type="curve"/>
      <point x="60" y="496" type="line"/>
      <point x="47" y="472"/>
      <point x="40" y="447"/>
      <point x="40" y="424" type="curve" smooth="yes"/>
      <point x="40" y="371"/>
      <point x="72" y="323"/>
    </contour>
    <contour>
      <point x="164" y="43" type="curve" smooth="yes"/>
      <point x="313" y="43" type="line"/>
      <point x="313" y="142" type="line"/>
      <point x="200" y="142" type="line" smooth="yes"/>
      <point x="173" y="142"/>
      <point x="164" y="152"/>
      <point x="164" y="170" type="curve" smooth="yes"/>
      <point x="164" y="182"/>
      <point x="166" y="193"/>
      <point x="169" y="202" type="curve"/>
      <point x="60" y="216" type="line"/>
      <point x="47" y="192"/>
      <point x="40" y="167"/>
      <point x="40" y="144" type="curve" smooth="yes"/>
      <point x="40" y="91"/>
      <point x="72" y="43"/>
    </contour>
  </outline>
</glyph>
<glyph name="maiHanaKat-thai" format="2">
  <unicode hex="0E31"/>
  <anchor x="-79" y="536" name="_top"/>
  <anchor x="-67" y="737" name="top"/>
  <outline>
    <contour>
      <point x="-225" y="624" type="curve" smooth="yes"/>
      <point x="27" y="624" type="line"/>
      <point x="27" y="721" type="line"/>
      <point x="-188" y="721" type="line" smooth="yes"/>
      <point x="-215" y="721"/>
      <point x="-225" y="731"/>
      <point x="-225" y="750" type="curve" smooth="yes"/>
      <point x="-225" y="758"/>
      <point x="-223" y="769"/>
      <point x="-220" y="778" type="curve"/>
      <point x="-329" y="792" type="line"/>
      <point x="-342" y="769"/>
      <point x="-349" y="742"/>
      <point x="-349" y="719" type="curve" smooth="yes"/>
      <point x="-349" y="671"/>
      <point x="-319" y="624"/>
    </contour>
  </outline>
</glyph>
<glyph name="saraAa-thai" format="2">
  <advance width="435"/>
  <unicode hex="0E32"/>
  <outline>
    <contour>
      <point x="215" y="0" type="line"/>
      <point x="365" y="0" type="line"/>
      <point x="365" y="389" type="line" smooth="yes"/>
      <point x="365" y="519"/>
      <point x="286" y="561"/>
      <point x="176" y="561" type="curve" smooth="yes"/>
      <point x="104" y="561"/>
      <point x="49" y="544"/>
      <point x="20" y="531" type="curve"/>
      <point x="20" y="411" type="line"/>
      <point x="52" y="428"/>
      <point x="88" y="442"/>
      <point x="132" y="442" type="curve" smooth="yes"/>
      <point x="190" y="442"/>
      <point x="215" y="418"/>
      <point x="215" y="362" type="curve" smooth="yes"/>
    </contour>
  </outline>
</glyph>
<glyph name="saraI-thai" format="2">
  <unicode hex="0E34"/>
  <anchor x="-79" y="536" name="_top"/>
  <anchor x="-79" y="713" name="top"/>
  <outline>
    <contour>
      <point x="-537" y="624" type="line"/>
      <point x="-79" y="624" type="line"/>
      <point x="-79" y="729" type="line"/>
      <point x="-436" y="729" type="line"/>
      <point x="-537" y="687" type="line"/>
    </contour>
  </outline>
</glyph>
<glyph name="saraIi-thai" format="2">
  <unicode hex="0E35"/>
  <anchor x="-77" y="532" name="_top"/>
  <anchor x="-79" y="772" name="top"/>
  <outline>
    <contour>
      <point x="-537" y="624" type="line"/>
      <point x="-79" y="624" type="line"/>
      <point x="-79" y="729" type="line"/>
      <point x="-436" y="729" type="line"/>
      <point x="-537" y="687" type="line"/>
    </contour>
    <contour>
      <point x="-207" y="685" type="line"/>
      <point x="-79" y="685" type="line"/>
      <point x="-79" y="798" type="line"/>
      <point x="-207" y="798" type="line"/>
    </contour>
  </outline>
</glyph>
<glyph name="saraUe-thai" format="2">
  <unicode hex="0E36"/>
  <anchor x="-79" y="536" name="_top"/>
  <anchor x="-81" y="772" name="top"/>
  <outline>
    <contour>
      <point x="-537" y="624" type="line"/>
      <point x="-158" y="624" type="line" smooth="yes"/>
      <point x="-89" y="624"/>
      <point x="-56" y="664"/>
      <point x="-56" y="717" type="curve" smooth="yes"/>
      <point x="-56" y="771"/>
      <point x="-94" y="811"/>
      <point x="-160" y="811" type="curve" smooth="yes"/>
      <point x="-222" y="811"/>
      <point x="-260" y="774"/>
      <point x="-260" y="725" type="curve" smooth="yes"/>
      <point x="-260" y="715"/>
      <point x="-258" y="703"/>
      <point x="-253" y="690" type="curve"/>
      <point x="-226" y="729" type="line"/>
      <point x="-436" y="729" type="line"/>
      <point x="-537" y="687" type="line"/>
    </contour>
    <contour>
      <point x="-160" y="677" type="curve" smooth="yes"/>
      <point x="-189" y="677"/>
      <point x="-203" y="695"/>
      <point x="-203" y="717" type="curve" smooth="yes"/>
      <point x="-203" y="739"/>
      <point x="-188" y="756"/>
      <point x="-161" y="756" type="curve" smooth="yes"/>
      <point x="-134" y="756"/>
      <point x="-118" y="739"/>
      <point x="-118" y="716" type="curve" smooth="yes"/>
      <point x="-118" y="694"/>
      <point x="-132" y="677"/>
    </contour>
  </outline>
</glyph>
<glyph name="saraUee-thai" format="2">
  <unicode hex="0E37"/>
  <anchor x="-79" y="536" name="_top"/>
  <anchor x="-128" y="772" name="top"/>
  <outline>
    <contour>
      <point x="-536" y="624" type="line"/>
      <point x="-78" y="624" type="line"/>
      <point x="-78" y="729" type="line"/>
      <point x="-435" y="729" type="line"/>
      <point x="-536" y="687" type="line"/>
    </contour>
    <contour>
      <point x="-326" y="685" type="line"/>
      <point x="-231" y="685" type="line"/>
      <point x="-231" y="798" type="line"/>
      <point x="-326" y="798" type="line"/>
    </contour>
    <contour>
      <point x="-172" y="685" type="line"/>
      <point x="-78" y="685" type="line"/>
      <point x="-78" y="798" type="line"/>
      <point x="-172" y="798" type="line"/>
    </contour>
  </outline>
</glyph>
<glyph name="saraE-thai" format="2">
  <advance width="341"/>
  <unicode hex="0E40"/>
  <outline>
    <contour>
      <point x="224" y="-10" type="curve" smooth="yes"/>
      <point x="260" y="-10"/>
      <point x="293" y="-3"/>
      <point x="318" y="10" type="curve"/>
      <point x="304" y="106" type="line"/>
      <point x="293" y="102"/>
      <point x="280" y="99"/>
      <point x="270" y="99" type="curve" smooth="yes"/>
      <point x="246" y="99"/>
      <point x="235" y="111"/>
      <point x="235" y="136" type="curve" smooth="yes"/>
      <point x="235" y="548" type="line"/>
      <point x="85" y="548" type="line"/>
      <point x="85" y="118" type="line" smooth="yes"/>
      <point x="85" y="31"/>
      <point x="134" y="-10"/>
    </contour>
  </outline>
</glyph>
<glyph name="saraO-thai" format="2">
  <advance width="349"/>
  <unicode hex="0E42"/>
  <outline>
    <contour>
      <point x="104" y="448" type="line"/>
      <point x="254" y="448" type="line"/>
      <point x="254" y="594" type="line" smooth="yes"/>
      <point x="254" y="659"/>
      <point x="238" y="698"/>
      <point x="203" y="719" type="curve"/>
      <point x="204" y="723" type="line"/>
      <point x="372" y="723" type="line"/>
      <point x="372" y="831" type="line"/>
      <point x="117" y="831" type="line"/>
      <point x="16" y="783" type="line"/>
      <point x="16" y="723" type="line"/>
      <point x="74" y="723"/>
      <point x="104" y="691"/>
      <point x="104" y="611" type="curve" smooth="yes"/>
    </contour>
    <component base="saraE-thai" xOffset="19"/>
  </outline>
</glyph>
<glyph name="saraAiMaimuan-thai" format="2">
  <advance width="338"/>
  <unicode hex="0E43"/>
  <outline>
    <contour>
      <point x="224" y="-10" type="curve" smooth="yes"/>
      <point x="260" y="-10"/>
      <point x="293" y="-3"/>
      <point x="318" y="10" type="curve"/>
      <point x="304" y="106" type="line"/>
      <point x="293" y="102"/>
      <point x="280" y="99"/>
      <point x="269" y="99" type="curve" smooth="yes"/>
      <point x="246" y="99"/>
      <point x="235" y="111"/>
      <point x="235" y="136" type="curve" smooth="yes"/>
      <point x="235" y="484" type="line" smooth="yes"/>
      <point x="235" y="533"/>
      <point x="252" y="545"/>
      <point x="285" y="590" type="curve" smooth="yes"/>
      <point x="308" y="621"/>
      <point x="333" y="659"/>
      <point x="333" y="713" type="curve" smooth="yes"/>
      <point x="333" y="801"/>
      <point x="267" y="845"/>
      <point x="162" y="845" type="curve" smooth="yes"/>
      <point x="93" y="845"/>
      <point x="41" y="826"/>
      <point x="23" y="816" type="curve"/>
      <point x="23" y="705" type="line"/>
      <point x="45" y="719"/>
      <point x="73" y="730"/>
      <point x="109" y="730" type="curve" smooth="yes"/>
      <point x="156" y="730"/>
      <point x="177" y="711"/>
      <point x="177" y="680" type="curve" smooth="yes"/>
      <point x="177" y="651"/>
      <point x="157" y="631"/>
      <point x="131" y="601" type="curve" smooth="yes"/>
      <point x="93" y="557"/>
      <point x="85" y="540"/>
      <point x="85" y="488" type="curve" smooth="yes"/>
      <point x="85" y="118" type="line" smooth="yes"/>
      <point x="85" y="31"/>
      <point x="134" y="-10"/>
    </contour>
  </outline>
</glyph>
<glyph name="saraAiMaimalai-thai" format="2">
  <advance width="347"/>
  <unicode hex="0E44"/>
  <outline>
    <contour>
      <point x="105" y="448" type="line"/>
      <point x="255" y="448" type="line"/>
      <point x="255" y="611" type="line" smooth="yes"/>
      <point x="255" y="696"/>
      <point x="297" y="723"/>
      <point x="346" y="723" type="curve"/>
      <point x="346" y="831" type="line"/>
      <point x="28" y="831" type="line"/>
      <point x="0" y="723" type="line"/>
      <point x="155" y="723" type="line"/>
      <point x="156" y="719" type="line"/>
      <point x="129" y="699"/>
      <point x="105" y="669"/>
      <point x="105" y="594" type="curve" smooth="yes"/>
    </contour>
    <component base="saraE-thai" xOffset="20"/>
  </outline>
</glyph>
<glyph name="lakkhangyao-thai" format="2">
  <advance width="435"/>
  <unicode hex="0E45"/>
  <outline>
    <contour>
      <point x="215" y="-212" type="line"/>
      <point x="365" y="-212" type="line"/>
      <point x="365" y="100" type="line"/>
      <point x="215" y="100" type="line"/>
    </contour>
    <component base="saraAa-thai"/>
  </outline>
</glyph>
<glyph name="maiyamok-thai" format="2">
  <advance width="637"/>
  <unicode hex="0E46"/>
  <outline>
    <contour>
      <point x="417" y="-212" type="line"/>
      <point x="567" y="-212" type="line"/>
      <point x="567" y="414" type="line" smooth="yes"/>
      <point x="567" y="532"/>
      <point x="506" y="561"/>
      <point x="432" y="561" type="curve" smooth="yes"/>
      <point x="378" y="561"/>
      <point x="339" y="545"/>
      <point x="321" y="509" type="curve"/>
      <point x="318" y="509" type="line"/>
      <point x="300" y="545"/>
      <point x="260" y="561"/>
      <point x="209" y="561" type="curve" smooth="yes"/>
      <point x="121" y="561"/>
      <point x="61" y="510"/>
      <point x="61" y="378" type="curve" smooth="yes"/>
      <point x="61" y="252"/>
      <point x="117" y="189"/>
      <point x="212" y="189" type="curve" smooth="yes"/>
      <point x="252" y="189"/>
      <point x="282" y="201"/>
      <point x="302" y="215" type="curve"/>
      <point x="276" y="309" type="line"/>
      <point x="266" y="305"/>
      <point x="255" y="303"/>
      <point x="245" y="303" type="curve" smooth="yes"/>
      <point x="213" y="303"/>
      <point x="198" y="322"/>
      <point x="198" y="380" type="curve" smooth="yes"/>
      <point x="198" y="434"/>
      <point x="210" y="454"/>
      <point x="237" y="454" type="curve" smooth="yes"/>
      <point x="260" y="454"/>
      <point x="274" y="441"/>
      <point x="274" y="409" type="curve" smooth="yes"/>
      <point x="274" y="376" type="line"/>
      <point x="344" y="376" type="line"/>
      <point x="344" y="409" type="line" smooth="yes"/>
      <point x="344" y="441"/>
      <point x="357" y="454"/>
      <point x="381" y="454" type="curve" smooth="yes"/>
      <point x="405" y="454"/>
      <point x="417" y="441"/>
      <point x="417" y="409" type="curve" smooth="yes"/>
    </contour>
  </outline>
</glyph>
<glyph name="maitaikhu-thai" format="2">
  <unicode hex="0E47"/>
  <anchor x="-79" y="536" name="_top"/>
  <anchor x="-201" y="845" name="top"/>
  <outline>
    <contour>
      <point x="-201" y="615" type="curve" smooth="yes"/>
      <point x="-140" y="615"/>
      <point x="-100" y="648"/>
      <point x="-100" y="720" type="curve" smooth="yes"/>
      <point x="-100" y="740" type="line"/>
      <point x="-201" y="740" type="line"/>
      <point x="-201" y="725" type="line" smooth="yes"/>
      <point x="-201" y="704"/>
      <point x="-212" y="690"/>
      <point x="-232" y="690" type="curve" smooth="yes"/>
      <point x="-256" y="690"/>
      <point x="-269" y="710"/>
      <point x="-273" y="736" type="curve"/>
      <point x="-293" y="736" type="line"/>
      <point x="-339" y="693" type="line"/>
      <point x="-361" y="693"/>
      <point x="-372" y="710"/>
      <point x="-372" y="735" type="curve" smooth="yes"/>
      <point x="-372" y="768"/>
      <point x="-352" y="784"/>
      <point x="-327" y="784" type="curve" smooth="yes"/>
      <point x="-101" y="784" type="line"/>
      <point x="-101" y="857" type="line"/>
      <point x="-353" y="857" type="line" smooth="yes"/>
      <point x="-417" y="857"/>
      <point x="-476" y="818"/>
      <point x="-476" y="737" type="curve" smooth="yes"/>
      <point x="-476" y="660"/>
      <point x="-421" y="618"/>
      <point x="-337" y="618" type="curve"/>
      <point x="-287" y="660" type="line"/>
      <point x="-271" y="631"/>
      <point x="-242" y="615"/>
    </contour>
  </outline>
</glyph>
<glyph name="maiEk-thai" format="2">
  <unicode hex="0E48"/>
  <anchor x="-79" y="536" name="_top"/>
  <anchor x="-79" y="845" name="top"/>
  <outline>
    <contour>
      <point x="-223" y="624" type="line"/>
      <point x="-85" y="624" type="line"/>
      <point x="-85" y="851" type="line"/>
      <point x="-223" y="851" type="line"/>
    </contour>
  </outline>
</glyph>
<glyph name="maiTho-thai" format="2">
  <unicode hex="0E49"/>
  <anchor x="-79" y="536" name="_top"/>
  <anchor x="-136" y="845" name="top"/>
  <outline>
    <contour>
      <point x="-381" y="623" type="line"/>
      <point x="-54" y="623" type="line"/>
      <point x="-54" y="720" type="line"/>
      <point x="-243" y="720" type="line"/>
      <point x="-239" y="694" type="line"/>
      <point x="-207" y="710"/>
      <point x="-192" y="737"/>
      <point x="-192" y="766" type="curve" smooth="yes"/>
      <point x="-192" y="820"/>
      <point x="-228" y="849"/>
      <point x="-288" y="849" type="curve" smooth="yes"/>
      <point x="-315" y="849"/>
      <point x="-360" y="843"/>
      <point x="-387" y="821" type="curve"/>
      <point x="-368" y="754" type="line"/>
      <point x="-359" y="758"/>
      <point x="-346" y="763"/>
      <point x="-335" y="763" type="curve" smooth="yes"/>
      <point x="-319" y="763"/>
      <point x="-307" y="752"/>
      <point x="-307" y="733" type="curve" smooth="yes"/>
      <point x="-307" y="696"/>
      <point x="-354" y="681"/>
      <point x="-381" y="673" type="curve"/>
    </contour>
  </outline>
</glyph>
<glyph name="maiTri-thai" format="2">
  <unicode hex="0E4A"/>
  <anchor x="-79" y="536" name="_top"/>
  <anchor x="-186" y="845" name="top"/>
  <outline>
    <contour>
      <point x="-339" y="619" type="curve" smooth="yes"/>
      <point x="-317" y="619"/>
      <point x="-291" y="623"/>
      <point x="-281" y="630" type="curve"/>
      <point x="-288" y="694" type="line"/>
      <point x="-296" y="691"/>
      <point x="-302" y="691"/>
      <point x="-308" y="691" type="curve" smooth="yes"/>
      <point x="-328" y="691"/>
      <point x="-341" y="706"/>
      <point x="-341" y="729" type="curve" smooth="yes"/>
      <point x="-341" y="753"/>
      <point x="-327" y="763"/>
      <point x="-315" y="765" type="curve"/>
      <point x="-278" y="743" type="line"/>
      <point x="-274" y="743" type="line"/>
      <point x="-236" y="765" type="line"/>
      <point x="-224" y="764"/>
      <point x="-208" y="753"/>
      <point x="-208" y="728" type="curve" smooth="yes"/>
      <point x="-208" y="705"/>
      <point x="-222" y="694"/>
      <point x="-238" y="688" type="curve"/>
      <point x="-238" y="624" type="line"/>
      <point x="-34" y="624" type="line"/>
      <point x="-34" y="715" type="line"/>
      <point x="-129" y="715" type="line"/>
      <point x="-125" y="699" type="line"/>
      <point x="-111" y="712"/>
      <point x="-102" y="731"/>
      <point x="-102" y="756" type="curve" smooth="yes"/>
      <point x="-102" y="804"/>
      <point x="-132" y="844"/>
      <point x="-221" y="848" type="curve"/>
      <point x="-277" y="810" type="line"/>
      <point x="-339" y="848" type="line"/>
      <point x="-408" y="844"/>
      <point x="-452" y="801"/>
      <point x="-452" y="731" type="curve" smooth="yes"/>
      <point x="-452" y="662"/>
      <point x="-410" y="619"/>
    </contour>
  </outline>
</glyph>
<glyph name="maiChattawa-thai" format="2">
  <unicode hex="0E4B"/>
  <anchor x="-79" y="536" name="_top"/>
  <anchor x="-122" y="845" name="top"/>
  <outline>
    <contour>
      <point x="-255" y="624" type="line"/>
      <point x="-135" y="624" type="line"/>
      <point x="-135" y="851" type="line"/>
      <point x="-255" y="851" type="line"/>
    </contour>
    <contour>
      <point x="-325" y="694" type="line"/>
      <point x="-66" y="694" type="line"/>
      <point x="-66" y="781" type="line"/>
      <point x="-325" y="781" type="line"/>
    </contour>
  </outline>
</glyph>
<glyph name="thanthakhat-thai" format="2">
  <unicode hex="0E4C"/>
  <anchor x="-79" y="536" name="_top"/>
  <anchor x="-86" y="771" name="top"/>
  <outline>
    <contour>
      <point x="-265" y="602" type="curve"/>
      <point x="-147" y="622" type="line"/>
      <point x="-152" y="632"/>
      <point x="-155" y="642"/>
      <point x="-155" y="652" type="curve" smooth="yes"/>
      <point x="-155" y="674"/>
      <point x="-141" y="682"/>
      <point x="-115" y="682" type="curve" smooth="yes"/>
      <point x="-19" y="682" type="line"/>
      <point x="-19" y="783" type="line"/>
      <point x="-164" y="783" type="line" smooth="yes"/>
      <point x="-257" y="783"/>
      <point x="-284" y="738"/>
      <point x="-284" y="682" type="curve" smooth="yes"/>
      <point x="-284" y="652"/>
      <point x="-276" y="621"/>
    </contour>
  </outline>
</glyph>
<glyph name="nikhahit-thai" format="2">
  <unicode hex="0E4D"/>
  <anchor x="-79" y="536" name="_top"/>
  <anchor x="-109" y="772" name="top"/>
  <outline>
    <contour>
      <point x="-181" y="602" type="curve" smooth="yes"/>
      <point x="-105" y="602"/>
      <point x="-55" y="638"/>
      <point x="-55" y="701" type="curve" smooth="yes"/>
      <point x="-55" y="764"/>
      <point x="-105" y="800"/>
      <point x="-181" y="800" type="curve" smooth="yes"/>
      <point x="-257" y="800"/>
      <point x="-306" y="764"/>
      <point x="-306" y="701" type="curve" smooth="yes"/>
      <point x="-306" y="638"/>
      <point x="-257" y="602"/>
    </contour>
    <contour>
      <point x="-181" y="660" type="curve" smooth="yes"/>
      <point x="-209" y="660"/>
      <point x="-226" y="676"/>
      <point x="-226" y="701" type="curve" smooth="yes"/>
      <point x="-226" y="726"/>
      <point x="-209" y="742"/>
      <point x="-181" y="742" type="curve" smooth="yes"/>
      <point x="-152" y="742"/>
      <point x="-135" y="726"/>
      <point x="-135" y="701" type="curve" smooth="yes"/>
      <point x="-135" y="676"/>
      <point x="-152" y="660"/>
    </contour>
  </outline>
</glyph>
<glyph name="yamakkan-thai" format="2">
  <unicode hex="0E4E"/>
  <anchor x="-79" y="536" name="_top"/>
  <anchor x="-85" y="769" name="top"/>
  <outline>
    <contour>
      <point x="-274" y="603" type="curve"/>
      <point x="-183" y="618" type="line"/>
      <point x="-187" y="626"/>
      <point x="-189" y="632"/>
      <point x="-189" y="640" type="curve" smooth="yes"/>
      <point x="-189" y="655"/>
      <point x="-180" y="668"/>
      <point x="-158" y="668" type="curve" smooth="yes"/>
      <point x="-150" y="668"/>
      <point x="-137" y="667"/>
      <point x="-127" y="658" type="curve"/>
      <point x="-90" y="684" type="line"/>
      <point x="-95" y="692"/>
      <point x="-97" y="701"/>
      <point x="-97" y="708" type="curve" smooth="yes"/>
      <point x="-97" y="730"/>
      <point x="-80" y="742"/>
      <point x="-56" y="742" type="curve" smooth="yes"/>
      <point x="-46" y="742"/>
      <point x="-31" y="740"/>
      <point x="-21" y="736" type="curve"/>
      <point x="-21" y="803" type="line"/>
      <point x="-39" y="811"/>
      <point x="-65" y="814"/>
      <point x="-83" y="814" type="curve" smooth="yes"/>
      <point x="-129" y="814"/>
      <point x="-172" y="793"/>
      <point x="-172" y="745" type="curve" smooth="yes"/>
      <point x="-172" y="731"/>
      <point x="-168" y="713"/>
      <point x="-158" y="702" type="curve"/>
      <point x="-144" y="712" type="line"/>
      <point x="-158" y="723"/>
      <point x="-173" y="733"/>
      <point x="-203" y="733" type="curve" smooth="yes"/>
      <point x="-251" y="733"/>
      <point x="-289" y="709"/>
      <point x="-289" y="657" type="curve" smooth="yes"/>
      <point x="-289" y="636"/>
      <point x="-283" y="616"/>
    </contour>
  </outline>
</glyph>
<glyph name="eight-thai" format="2">
  <advance width="567"/>
  <unicode hex="0E58"/>
  <outline>
    <contour>
      <point x="382" y="-13" type="curve" smooth="yes"/>
      <point x="470" y="-13"/>
      <point x="523" y="44"/>
      <point x="523" y="145" type="curve" smooth="yes"/>
      <point x="523" y="207"/>
      <point x="504" y="255"/>
      <point x="455" y="289" type="curve"/>
      <point x="374" y="221" type="line"/>
      <point x="385" y="210"/>
      <point x="402" y="191"/>
      <point x="402" y="159" type="curve" smooth="yes"/>
      <point x="402" y="125"/>
      <point x="385" y="106"/>
      <point x="355" y="106" type="curve" smooth="yes"/>
      <point x="326" y="106"/>
      <point x="311" y="124"/>
      <point x="311" y="169" type="curve"/>
      <point x="271" y="169" type="line"/>
      <point x="234" y="119" type="line"/>
      <point x="210" y="125"/>
      <point x="182" y="152"/>
      <point x="182" y="228" type="curve" smooth="yes"/>
      <point x="182" y="306"/>
      <point x="213" y="355"/>
      <point x="282" y="355" type="curve" smooth="yes"/>
      <point x="347" y="355" type="line" smooth="yes"/>
      <point x="445" y="355"/>
      <point x="491" y="406"/>
      <point x="491" y="496" type="curve" smooth="yes"/>
      <point x="491" y="584" type="line"/>
      <point x="352" y="584" type="line"/>
      <point x="352" y="525" type="line" smooth="yes"/>
      <point x="352" y="476"/>
      <point x="339" y="460"/>
      <point x="288" y="460" type="curve" smooth="yes"/>
      <point x="254" y="460" type="line" smooth="yes"/>
      <point x="93" y="460"/>
      <point x="47" y="352"/>
      <point x="47" y="219" type="curve" smooth="yes"/>
      <point x="47" y="64"/>
      <point x="110" y="-9"/>
      <point x="219" y="-9" type="curve"/>
      <point x="288" y="78" type="line"/>
      <point x="269" y="78" type="line"/>
      <point x="277" y="14"/>
      <point x="318" y="-13"/>
    </contour>
  </outline>
</glyph>
<glyph name="nine-thai" format="2">
  <advance width="549"/>
  <unicode hex="0E59"/>
  <outline>
    <contour>
      <point x="211" y="-10" type="curve" smooth="yes"/>
      <point x="240" y="-10"/>
      <point x="275" y="-5"/>
      <point x="295" y="3" type="curve"/>
      <point x="278" y="101" type="line"/>
      <point x="270" y="97"/>
      <point x="260" y="96"/>
      <point x="253" y="96" type="curve" smooth="yes"/>
      <point x="207" y="96"/>
      <point x="191" y="144"/>
      <point x="191" y="237" type="curve" smooth="yes"/>
      <point x="191" y="337"/>
      <point x="209" y="359"/>
      <point x="233" y="359" type="curve" smooth="yes"/>
      <point x="249" y="359"/>
      <point x="256" y="349"/>
      <point x="263" y="326" type="curve" smooth="yes"/>
      <point x="369" y="0" type="line"/>
      <point x="500" y="0" type="line"/>
      <point x="392" y="304" type="line" smooth="yes"/>
      <point x="375" y="353"/>
      <point x="388" y="374"/>
      <point x="427" y="374" type="curve" smooth="yes"/>
      <point x="441" y="374" type="line" smooth="yes"/>
      <point x="497" y="374"/>
      <point x="527" y="415"/>
      <point x="527" y="485" type="curve" smooth="yes"/>
      <point x="527" y="584" type="line"/>
      <point x="401" y="584" type="line"/>
      <point x="401" y="506" type="line" smooth="yes"/>
      <point x="401" y="478"/>
      <point x="393" y="465"/>
      <point x="367" y="465" type="curve" smooth="yes"/>
      <point x="362" y="465" type="line" smooth="yes"/>
      <point x="320" y="465"/>
      <point x="296" y="431"/>
      <point x="298" y="393" type="curve"/>
      <point x="319" y="392" type="line"/>
      <point x="298" y="445"/>
      <point x="265" y="465"/>
      <point x="204" y="465" type="curve" smooth="yes"/>
      <point x="96" y="465"/>
      <point x="47" y="402"/>
      <point x="47" y="238" type="curve" smooth="yes"/>
      <point x="47" y="83"/>
      <point x="90" y="-10"/>
    </contour>
  </outline>
</glyph>
<glyph name="angkhankhu-thai" format="2">
  <advance width="827"/>
  <unicode hex="0E5A"/>
  <outline>
    <contour>
      <point x="317" y="0" type="line"/>
      <point x="467" y="0" type="line"/>
      <point x="467" y="548" type="line"/>
      <point x="317" y="548" type="line"/>
      <point x="317" y="413" type="line" smooth="yes"/>
      <point x="317" y="354"/>
      <point x="291" y="324"/>
      <point x="235" y="324" type="curve" smooth="yes"/>
      <point x="181" y="324"/>
      <point x="154" y="351"/>
      <point x="154" y="394" type="curve" smooth="yes"/>
      <point x="154" y="436"/>
      <point x="180" y="456"/>
      <point x="213" y="456" type="curve" smooth="yes"/>
      <point x="219" y="456"/>
      <point x="228" y="455"/>
      <point x="241" y="451" type="curve"/>
      <point x="252" y="546" type="line"/>
      <point x="224" y="556"/>
      <point x="198" y="558"/>
      <point x="179" y="558" type="curve" smooth="yes"/>
      <point x="75" y="558"/>
      <point x="13" y="495"/>
      <point x="13" y="391" type="curve" smooth="yes"/>
      <point x="13" y="269"/>
      <point x="98" y="211"/>
      <point x="200" y="211" type="curve" smooth="yes"/>
      <point x="286" y="211"/>
      <point x="350" y="252"/>
      <point x="353" y="332" type="curve"/>
      <point x="317" y="329" type="line"/>
    </contour>
    <contour>
      <point x="601" y="0" type="line"/>
      <point x="751" y="0" type="line"/>
      <point x="751" y="548" type="line"/>
      <point x="601" y="548" type="line"/>
      <point x="601" y="425" type="line" smooth="yes"/>
      <point x="601" y="360"/>
      <point x="564" y="323"/>
      <point x="509" y="323" type="curve" smooth="yes"/>
      <point x="481" y="323"/>
      <point x="459" y="332"/>
      <point x="436" y="350" type="curve"/>
      <point x="399" y="261" type="line"/>
      <point x="430" y="231"/>
      <point x="467" y="216"/>
      <point x="505" y="216" type="curve" smooth="yes"/>
      <point x="570" y="216"/>
      <point x="629" y="259"/>
      <point x="631" y="344" type="curve"/>
      <point x="601" y="342" type="line"/>
    </contour>
  </outline>
</glyph>
<glyph name="khomut-thai" format="2">
  <advance width="906"/>
  <unicode hex="0E5B"/>
  <outline>
    <contour>
      <point x="248" y="70" type="curve" smooth="yes"/>
      <point x="428" y="70"/>
      <point x="458" y="214"/>
      <point x="466" y="285" type="curve"/>
      <point x="440" y="285" type="line"/>
      <point x="487" y="122" type="line"/>
      <point x="564" y="122" type="line"/>
      <point x="599" y="291" type="line"/>
      <point x="576" y="291" type="line"/>
      <point x="625" y="132" type="line"/>
      <point x="686" y="132" type="line"/>
      <point x="715" y="277" type="line"/>
      <point x="687" y="277" type="line"/>
      <point x="706" y="180"/>
      <point x="749" y="134"/>
      <point x="807" y="134" type="curve" smooth="yes"/>
      <point x="828" y="134"/>
      <point x="841" y="139"/>
      <point x="853" y="146" type="curve"/>
      <point x="853" y="241" type="line"/>
      <point x="846" y="238"/>
      <point x="838" y="235"/>
      <point x="824" y="235" type="curve" smooth="yes"/>
      <point x="773" y="235"/>
      <point x="767" y="269"/>
      <point x="754" y="314" type="curve" smooth="yes"/>
      <point x="749" y="332" type="line"/>
      <point x="683" y="332" type="line"/>
      <point x="647" y="212" type="line"/>
      <point x="671" y="213" type="line"/>
      <point x="624" y="348" type="line"/>
      <point x="550" y="348" type="line"/>
      <point x="514" y="198" type="line"/>
      <point x="537" y="198" type="line"/>
      <point x="481" y="358" type="line"/>
      <point x="390" y="358" type="line"/>
      <point x="396" y="246"/>
      <point x="362" y="175"/>
      <point x="268" y="175" type="curve" smooth="yes"/>
      <point x="212" y="175"/>
      <point x="177" y="201"/>
      <point x="177" y="269" type="curve" smooth="yes"/>
      <point x="177" y="301"/>
      <point x="186" y="333"/>
      <point x="216" y="333" type="curve" smooth="yes"/>
      <point x="237" y="333"/>
      <point x="251" y="319"/>
      <point x="251" y="294" type="curve" smooth="yes"/>
      <point x="251" y="281"/>
      <point x="247" y="267"/>
      <point x="243" y="258" type="curve"/>
      <point x="331" y="229" type="line"/>
      <point x="344" y="254"/>
      <point x="352" y="281"/>
      <point x="352" y="312" type="curve" smooth="yes"/>
      <point x="352" y="388"/>
      <point x="305" y="434"/>
      <point x="209" y="434" type="curve" smooth="yes"/>
      <point x="96" y="434"/>
      <point x="50" y="365"/>
      <point x="50" y="266" type="curve" smooth="yes"/>
      <point x="50" y="144"/>
      <point x="116" y="70"/>
    </contour>
  </outline>
</glyph>
<glyph name="doChada-thai.short" format="2">
  <advance width="637"/>
  <anchor x="567" y="-174" name="bottom"/>
  <anchor x="541" y="536" name="top"/>
  <outline>
    <contour>
      <point x="91" y="-174" type="line"/>
      <point x="232" y="-174" type="line"/>
      <point x="232" y="-165" type="line" smooth="yes"/>
      <point x="232" y="-135"/>
      <point x="251" y="-114"/>
      <point x="298" y="-114" type="curve" smooth="yes"/>
      <point x="345" y="-114"/>
      <point x="408" y="-137"/>
      <point x="437" y="-174" type="curve"/>
      <point x="567" y="-174" type="line"/>
      <point x="567" y="350" type="line" smooth="yes"/>
      <point x="567" y="491"/>
      <point x="471" y="561"/>
      <point x="317" y="561" type="curve" smooth="yes"/>
      <point x="152" y="561"/>
      <point x="67" y="479"/>
      <point x="67" y="381" type="curve" smooth="yes"/>
      <point x="67" y="355" type="line"/>
      <point x="176" y="316" type="line"/>
      <point x="175" y="312" type="line"/>
      <point x="120" y="298"/>
      <point x="94" y="263"/>
      <point x="94" y="198" type="curve" smooth="yes"/>
      <point x="94" y="131" type="line" smooth="yes"/>
      <point x="94" y="107"/>
      <point x="84" y="96"/>
      <point x="62" y="96" type="curve" smooth="yes"/>
      <point x="54" y="96"/>
      <point x="45" y="97"/>
      <point x="36" y="100" type="curve"/>
      <point x="22" y="17" type="line"/>
      <point x="46" y="5"/>
      <point x="76" y="-4"/>
      <point x="114" y="-4" type="curve" smooth="yes"/>
      <point x="187" y="-4"/>
      <point x="240" y="28"/>
      <point x="240" y="114" type="curve" smooth="yes"/>
      <point x="240" y="192" type="line" smooth="yes"/>
      <point x="240" y="246"/>
      <point x="259" y="270"/>
      <point x="297" y="270" type="curve"/>
      <point x="308" y="335" type="line"/>
      <point x="221" y="374" type="line"/>
      <point x="223" y="411"/>
      <point x="253" y="441"/>
      <point x="315" y="441" type="curve" smooth="yes"/>
      <point x="380" y="441"/>
      <point x="417" y="408"/>
      <point x="417" y="341" type="curve" smooth="yes"/>
      <point x="417" y="-100" type="line"/>
      <point x="447" y="-90" type="line"/>
      <point x="418" y="-47"/>
      <point x="342" y="-11"/>
      <point x="255" y="-11" type="curve" smooth="yes"/>
      <point x="152" y="-11"/>
      <point x="91" y="-60"/>
      <point x="91" y="-157" type="curve" smooth="yes"/>
    </contour>
  </outline>
</glyph>
<glyph name="loChula-thai.short" format="2">
  <advance width="708"/>
  <anchor x="599" y="0" name="bottom"/>
  <anchor x="621" y="536" name="top"/>
  <outline>
    <contour>
      <point x="96" y="0" type="line"/>
      <point x="258" y="0" type="line"/>
      <point x="311" y="150" type="line" smooth="yes"/>
      <point x="326" y="191"/>
      <point x="338" y="228"/>
      <point x="348" y="278" type="curve"/>
      <point x="352" y="278" type="line"/>
      <point x="363" y="228"/>
      <point x="375" y="191"/>
      <point x="389" y="149" type="curve" smooth="yes"/>
      <point x="439" y="0" type="line"/>
      <point x="600" y="0" type="line"/>
      <point x="654" y="344" type="line" smooth="yes"/>
      <point x="662" y="394"/>
      <point x="649" y="443"/>
      <point x="592" y="462" type="curve"/>
      <point x="592" y="466" type="line"/>
      <point x="666" y="476"/>
      <point x="695" y="523"/>
      <point x="695" y="584" type="curve"/>
      <point x="551" y="584" type="line"/>
      <point x="547" y="544"/>
      <point x="538" y="524"/>
      <point x="486" y="524" type="curve" smooth="yes"/>
      <point x="404" y="524" type="line"/>
      <point x="404" y="431" type="line"/>
      <point x="459" y="431" type="line" smooth="yes"/>
      <point x="511" y="431"/>
      <point x="525" y="404"/>
      <point x="517" y="352" type="curve" smooth="yes"/>
      <point x="507" y="284" type="line" smooth="yes"/>
      <point x="500" y="234"/>
      <point x="494" y="190"/>
      <point x="490" y="126" type="curve"/>
      <point x="486" y="126" type="line"/>
      <point x="469" y="187"/>
      <point x="452" y="242"/>
      <point x="435" y="285" type="curve" smooth="yes"/>
      <point x="394" y="391" type="line"/>
      <point x="304" y="391" type="line"/>
      <point x="265" y="284" type="line" smooth="yes"/>
      <point x="243" y="223"/>
      <point x="227" y="175"/>
      <point x="215" y="130" type="curve"/>
      <point x="211" y="130" type="line"/>
      <point x="211" y="202"/>
      <point x="211" y="263"/>
      <point x="206" y="318" type="curve" smooth="yes"/>
      <point x="185" y="548" type="line"/>
      <point x="31" y="548" type="line"/>
    </contour>
  </outline>
</glyph>
<glyph name="lu-thai.short" format="2">
  <advance width="637"/>
  <anchor x="567" y="-174" name="bottom"/>
  <anchor x="542" y="538" name="top"/>
  <outline>
    <contour>
      <point x="417" y="-174" type="line"/>
      <point x="567" y="-174" type="line"/>
      <point x="567" y="100" type="line"/>
      <point x="417" y="100" type="line"/>
    </contour>
    <component base="phoSamphao-thai"/>
  </outline>
</glyph>
<glyph name="lu_lakkhangyao-thai" format="2">
  <advance width="976"/>
  <outline>
    <contour>
      <point x="417" y="-212" type="line"/>
      <point x="567" y="-212" type="line"/>
      <point x="567" y="335" type="line" smooth="yes"/>
      <point x="567" y="408"/>
      <point x="602" y="441"/>
      <point x="661" y="441" type="curve" smooth="yes"/>
      <point x="720" y="441"/>
      <point x="756" y="409"/>
      <point x="756" y="337" type="curve" smooth="yes"/>
      <point x="756" y="-212" type="line"/>
      <point x="906" y="-212" type="line"/>
      <point x="906" y="356" type="line" smooth="yes"/>
      <point x="906" y="480"/>
      <point x="836" y="561"/>
      <point x="690" y="561" type="curve" smooth="yes"/>
      <point x="599" y="561"/>
      <point x="534" y="528"/>
      <point x="503" y="472" type="curve"/>
      <point x="500" y="472" type="line"/>
      <point x="471" y="529"/>
      <point x="405" y="561"/>
      <point x="313" y="561" type="curve" smooth="yes"/>
      <point x="153" y="561"/>
      <point x="67" y="479"/>
      <point x="67" y="381" type="curve" smooth="yes"/>
      <point x="67" y="355" type="line"/>
      <point x="176" y="316" type="line"/>
      <point x="175" y="312" type="line"/>
      <point x="120" y="298"/>
      <point x="94" y="263"/>
      <point x="94" y="198" type="curve" smooth="yes"/>
      <point x="94" y="125" type="line" smooth="yes"/>
      <point x="94" y="101"/>
      <point x="84" y="90"/>
      <point x="62" y="90" type="curve" smooth="yes"/>
      <point x="54" y="90"/>
      <point x="45" y="91"/>
      <point x="36" y="94" type="curve"/>
      <point x="22" y="11" type="line"/>
      <point x="46" y="-2"/>
      <point x="76" y="-10"/>
      <point x="114" y="-10" type="curve" smooth="yes"/>
      <point x="187" y="-10"/>
      <point x="240" y="22"/>
      <point x="240" y="108" type="curve" smooth="yes"/>
      <point x="240" y="192" type="line" smooth="yes"/>
      <point x="240" y="246"/>
      <point x="259" y="270"/>
      <point x="297" y="270" type="curve"/>
      <point x="308" y="335" type="line"/>
      <point x="221" y="374" type="line"/>
      <point x="223" y="411"/>
      <point x="253" y="441"/>
      <point x="315" y="441" type="curve" smooth="yes"/>
      <point x="380" y="441"/>
      <point x="417" y="408"/>
      <point x="417" y="338" type="curve" smooth="yes"/>
    </contour>
  </outline>
</glyph>
<glyph name="maiChattawa-thai.narrow" format="2">
  <anchor x="-268" y="536" name="_top"/>
  <anchor x="-334" y="844" name="top"/>
  <outline>
    <contour>
      <point x="-458" y="624" type="line"/>
      <point x="-338" y="624" type="line"/>
      <point x="-338" y="851" type="line"/>
      <point x="-458" y="851" type="line"/>
    </contour>
    <contour>
      <point x="-528" y="694" type="line"/>
      <point x="-269" y="694" type="line"/>
      <point x="-269" y="781" type="line"/>
      <point x="-528" y="781" type="line"/>
    </contour>
  </outline>
</glyph>
<glyph name="maiChattawa-thai.small" format="2">
  <anchor x="-79" y="772" name="_top"/>
  <anchor x="-79" y="1037" name="top"/>
  <outline>
    <contour>
      <point x="-206" y="851" type="line"/>
      <point x="-86" y="851" type="line"/>
      <point x="-86" y="1037" type="line"/>
      <point x="-206" y="1037" type="line"/>
    </contour>
    <contour>
      <point x="-270" y="902" type="line"/>
      <point x="-21" y="902" type="line"/>
      <point x="-21" y="986" type="line"/>
      <point x="-270" y="986" type="line"/>
    </contour>
  </outline>
</glyph>
<glyph name="maiEk-thai.narrow" format="2">
  <anchor x="-267" y="536" name="_top"/>
  <anchor x="-279" y="845" name="top"/>
  <outline>
    <contour>
      <point x="-416" y="624" type="line"/>
      <point x="-279" y="624" type="line"/>
      <point x="-279" y="851" type="line"/>
      <point x="-416" y="851" type="line"/>
    </contour>
  </outline>
</glyph>
<glyph name="maiEk-thai.small" format="2">
  <anchor x="-79" y="772" name="_top"/>
  <anchor x="-79" y="1038" name="top"/>
  <outline>
    <contour>
      <point x="-208" y="851" type="line"/>
      <point x="-78" y="851" type="line"/>
      <point x="-78" y="1037" type="line"/>
      <point x="-208" y="1037" type="line"/>
    </contour>
  </outline>
</glyph>
<glyph name="maiHanaKat-thai.narrow" format="2">
  <anchor x="-267" y="536" name="_top"/>
  <anchor x="-287" y="740" name="top"/>
  <outline>
    <contour>
      <point x="-430" y="624" type="curve" smooth="yes"/>
      <point x="-267" y="624" type="line"/>
      <point x="-267" y="721" type="line"/>
      <point x="-393" y="721" type="line" smooth="yes"/>
      <point x="-420" y="721"/>
      <point x="-430" y="731"/>
      <point x="-430" y="750" type="curve" smooth="yes"/>
      <point x="-430" y="758"/>
      <point x="-429" y="769"/>
      <point x="-426" y="778" type="curve"/>
      <point x="-535" y="792" type="line"/>
      <point x="-547" y="769"/>
      <point x="-554" y="742"/>
      <point x="-554" y="719" type="curve" smooth="yes"/>
      <point x="-554" y="671"/>
      <point x="-524" y="624"/>
    </contour>
  </outline>
</glyph>
<glyph name="maiTho-thai.narrow" format="2">
  <anchor x="-267" y="536" name="_top"/>
  <anchor x="-323" y="845" name="top"/>
  <outline>
    <contour>
      <point x="-533" y="623" type="line"/>
      <point x="-267" y="623" type="line"/>
      <point x="-267" y="720" type="line"/>
      <point x="-397" y="720" type="line"/>
      <point x="-392" y="697" type="line"/>
      <point x="-356" y="712"/>
      <point x="-345" y="740"/>
      <point x="-345" y="765" type="curve" smooth="yes"/>
      <point x="-345" y="821"/>
      <point x="-381" y="849"/>
      <point x="-441" y="849" type="curve" smooth="yes"/>
      <point x="-468" y="849"/>
      <point x="-513" y="843"/>
      <point x="-540" y="821" type="curve"/>
      <point x="-521" y="754" type="line"/>
      <point x="-512" y="758"/>
      <point x="-499" y="763"/>
      <point x="-489" y="763" type="curve" smooth="yes"/>
      <point x="-472" y="763"/>
      <point x="-461" y="753"/>
      <point x="-461" y="733" type="curve" smooth="yes"/>
      <point x="-461" y="696"/>
      <point x="-507" y="681"/>
      <point x="-533" y="673" type="curve"/>
    </contour>
  </outline>
</glyph>
<glyph name="maiTho-thai.small" format="2">
  <anchor x="-79" y="772" name="_top"/>
  <anchor x="-79" y="1038" name="top"/>
  <outline>
    <contour>
      <point x="-267" y="851" type="line"/>
      <point x="8" y="851" type="line"/>
      <point x="8" y="935" type="line"/>
      <point x="-141" y="935" type="line"/>
      <point x="-134" y="914" type="line"/>
      <point x="-107" y="927"/>
      <point x="-101" y="951"/>
      <point x="-101" y="971" type="curve" smooth="yes"/>
      <point x="-101" y="1017"/>
      <point x="-135" y="1037"/>
      <point x="-186" y="1037" type="curve" smooth="yes"/>
      <point x="-211" y="1037"/>
      <point x="-252" y="1032"/>
      <point x="-276" y="1014" type="curve"/>
      <point x="-258" y="956" type="line"/>
      <point x="-251" y="962"/>
      <point x="-239" y="966"/>
      <point x="-229" y="966" type="curve" smooth="yes"/>
      <point x="-216" y="966"/>
      <point x="-206" y="957"/>
      <point x="-206" y="942" type="curve" smooth="yes"/>
      <point x="-206" y="911"/>
      <point x="-247" y="898"/>
      <point x="-267" y="892" type="curve"/>
    </contour>
  </outline>
</glyph>
<glyph name="maiTri-thai.narrow" format="2">
  <anchor x="-268" y="536" name="_top"/>
  <anchor x="-372" y="845" name="top"/>
  <outline>
    <contour>
      <point x="-506" y="619" type="curve" smooth="yes"/>
      <point x="-487" y="619"/>
      <point x="-465" y="623"/>
      <point x="-455" y="630" type="curve"/>
      <point x="-462" y="694" type="line"/>
      <point x="-470" y="691"/>
      <point x="-477" y="691"/>
      <point x="-482" y="691" type="curve" smooth="yes"/>
      <point x="-503" y="691"/>
      <point x="-514" y="709"/>
      <point x="-514" y="729" type="curve" smooth="yes"/>
      <point x="-514" y="751"/>
      <point x="-501" y="765"/>
      <point x="-487" y="767" type="curve"/>
      <point x="-457" y="745" type="line"/>
      <point x="-453" y="745" type="line"/>
      <point x="-422" y="767" type="line"/>
      <point x="-409" y="765"/>
      <point x="-395" y="753"/>
      <point x="-395" y="728" type="curve" smooth="yes"/>
      <point x="-395" y="705"/>
      <point x="-407" y="694"/>
      <point x="-424" y="688" type="curve"/>
      <point x="-424" y="624" type="line"/>
      <point x="-260" y="624" type="line"/>
      <point x="-260" y="711" type="line"/>
      <point x="-327" y="711" type="line"/>
      <point x="-323" y="692" type="line"/>
      <point x="-310" y="706"/>
      <point x="-301" y="727"/>
      <point x="-301" y="757" type="curve" smooth="yes"/>
      <point x="-301" y="807"/>
      <point x="-330" y="844"/>
      <point x="-408" y="848" type="curve"/>
      <point x="-456" y="810" type="line"/>
      <point x="-508" y="848" type="line"/>
      <point x="-569" y="844"/>
      <point x="-610" y="803"/>
      <point x="-610" y="731" type="curve" smooth="yes"/>
      <point x="-610" y="662"/>
      <point x="-572" y="619"/>
    </contour>
  </outline>
</glyph>
<glyph name="maiTri-thai.small" format="2">
  <anchor x="-79" y="772" name="_top"/>
  <anchor x="-79" y="1037" name="top"/>
  <outline>
    <contour>
      <point x="-236" y="847" type="curve" smooth="yes"/>
      <point x="-216" y="847"/>
      <point x="-195" y="851"/>
      <point x="-186" y="857" type="curve"/>
      <point x="-192" y="912" type="line"/>
      <point x="-197" y="910"/>
      <point x="-204" y="909"/>
      <point x="-209" y="909" type="curve" smooth="yes"/>
      <point x="-227" y="909"/>
      <point x="-238" y="920"/>
      <point x="-238" y="938" type="curve" smooth="yes"/>
      <point x="-238" y="956"/>
      <point x="-228" y="969"/>
      <point x="-215" y="969" type="curve"/>
      <point x="-178" y="945" type="line"/>
      <point x="-173" y="945" type="line"/>
      <point x="-137" y="969" type="line"/>
      <point x="-124" y="967"/>
      <point x="-114" y="955"/>
      <point x="-114" y="939" type="curve" smooth="yes"/>
      <point x="-114" y="921"/>
      <point x="-127" y="909"/>
      <point x="-141" y="906" type="curve"/>
      <point x="-141" y="851" type="line"/>
      <point x="40" y="851" type="line"/>
      <point x="40" y="927" type="line"/>
      <point x="-55" y="927" type="line"/>
      <point x="-51" y="911" type="line"/>
      <point x="-37" y="918"/>
      <point x="-25" y="937"/>
      <point x="-25" y="965" type="curve" smooth="yes"/>
      <point x="-25" y="1015"/>
      <point x="-70" y="1037"/>
      <point x="-132" y="1037" type="curve"/>
      <point x="-175" y="1001" type="line"/>
      <point x="-221" y="1037" type="line"/>
      <point x="-297" y="1037"/>
      <point x="-332" y="993"/>
      <point x="-332" y="940" type="curve" smooth="yes"/>
      <point x="-332" y="890"/>
      <point x="-304" y="847"/>
    </contour>
  </outline>
</glyph>
<glyph name="maitaikhu-thai.narrow" format="2">
  <anchor x="-268" y="536" name="_top"/>
  <anchor x="-332" y="824" name="top"/>
  <outline>
    <contour>
      <point x="-358" y="615" type="curve" smooth="yes"/>
      <point x="-303" y="615"/>
      <point x="-267" y="648"/>
      <point x="-267" y="720" type="curve" smooth="yes"/>
      <point x="-267" y="740" type="line"/>
      <point x="-357" y="740" type="line"/>
      <point x="-357" y="725" type="line" smooth="yes"/>
      <point x="-357" y="704"/>
      <point x="-368" y="690"/>
      <point x="-385" y="690" type="curve" smooth="yes"/>
      <point x="-406" y="690"/>
      <point x="-418" y="708"/>
      <point x="-419" y="736" type="curve"/>
      <point x="-440" y="736" type="line"/>
      <point x="-477" y="693" type="line"/>
      <point x="-498" y="693"/>
      <point x="-508" y="711"/>
      <point x="-508" y="735" type="curve" smooth="yes"/>
      <point x="-508" y="768"/>
      <point x="-490" y="784"/>
      <point x="-467" y="784" type="curve" smooth="yes"/>
      <point x="-268" y="784" type="line"/>
      <point x="-268" y="857" type="line"/>
      <point x="-490" y="857" type="line" smooth="yes"/>
      <point x="-548" y="857"/>
      <point x="-601" y="818"/>
      <point x="-601" y="737" type="curve" smooth="yes"/>
      <point x="-601" y="660"/>
      <point x="-552" y="618"/>
      <point x="-475" y="618" type="curve"/>
      <point x="-436" y="660" type="line"/>
      <point x="-420" y="631"/>
      <point x="-394" y="615"/>
    </contour>
  </outline>
</glyph>
<glyph name="ru-thai.short" format="2">
  <advance width="625"/>
  <anchor x="555" y="-174" name="bottom"/>
  <anchor x="542" y="536" name="top"/>
  <outline>
    <contour>
      <point x="405" y="-174" type="line"/>
      <point x="555" y="-174" type="line"/>
      <point x="555" y="100" type="line"/>
      <point x="405" y="100" type="line"/>
    </contour>
    <component base="thoThung-thai"/>
  </outline>
</glyph>
<glyph name="ru_lakkhangyao-thai" format="2">
  <advance width="964"/>
  <outline>
    <contour>
      <point x="405" y="-212" type="line"/>
      <point x="555" y="-212" type="line"/>
      <point x="555" y="335" type="line" smooth="yes"/>
      <point x="555" y="408"/>
      <point x="590" y="441"/>
      <point x="650" y="441" type="curve" smooth="yes"/>
      <point x="709" y="441"/>
      <point x="744" y="409"/>
      <point x="744" y="337" type="curve" smooth="yes"/>
      <point x="744" y="-212" type="line"/>
      <point x="894" y="-212" type="line"/>
      <point x="894" y="356" type="line" smooth="yes"/>
      <point x="894" y="480"/>
      <point x="824" y="561"/>
      <point x="679" y="561" type="curve" smooth="yes"/>
      <point x="587" y="561"/>
      <point x="522" y="528"/>
      <point x="492" y="472" type="curve"/>
      <point x="488" y="472" type="line"/>
      <point x="455" y="529"/>
      <point x="392" y="561"/>
      <point x="296" y="561" type="curve" smooth="yes"/>
      <point x="143" y="561"/>
      <point x="55" y="479"/>
      <point x="55" y="381" type="curve" smooth="yes"/>
      <point x="55" y="355" type="line"/>
      <point x="164" y="316" type="line"/>
      <point x="163" y="312" type="line"/>
      <point x="101" y="293"/>
      <point x="65" y="257"/>
      <point x="65" y="179" type="curve" smooth="yes"/>
      <point x="65" y="118" type="line" smooth="yes"/>
      <point x="65" y="31"/>
      <point x="120" y="-10"/>
      <point x="206" y="-10" type="curve" smooth="yes"/>
      <point x="242" y="-10"/>
      <point x="275" y="-3"/>
      <point x="300" y="10" type="curve"/>
      <point x="286" y="99" type="line"/>
      <point x="276" y="95"/>
      <point x="263" y="93"/>
      <point x="251" y="93" type="curve" smooth="yes"/>
      <point x="223" y="93"/>
      <point x="211" y="105"/>
      <point x="211" y="134" type="curve" smooth="yes"/>
      <point x="211" y="195" type="line" smooth="yes"/>
      <point x="211" y="250"/>
      <point x="237" y="269"/>
      <point x="286" y="270" type="curve"/>
      <point x="296" y="334" type="line"/>
      <point x="209" y="374" type="line"/>
      <point x="211" y="411"/>
      <point x="241" y="441"/>
      <point x="303" y="441" type="curve" smooth="yes"/>
      <point x="368" y="441"/>
      <point x="405" y="408"/>
      <point x="405" y="338" type="curve" smooth="yes"/>
    </contour>
  </outline>
</glyph>
<glyph name="saraI-thai.narrow" format="2">
  <anchor x="-267" y="536" name="_top"/>
  <anchor x="-267" y="713" name="top"/>
  <outline>
    <contour>
      <point x="-639" y="624" type="line"/>
      <point x="-267" y="624" type="line"/>
      <point x="-267" y="729" type="line"/>
      <point x="-557" y="729" type="line"/>
      <point x="-639" y="687" type="line"/>
    </contour>
  </outline>
</glyph>
<glyph name="saraIi-thai.narrow" format="2">
  <anchor x="-268" y="536" name="_top"/>
  <anchor x="-268" y="772" name="top"/>
  <outline>
    <contour>
      <point x="-639" y="624" type="line"/>
      <point x="-267" y="624" type="line"/>
      <point x="-267" y="723" type="line"/>
      <point x="-557" y="723" type="line"/>
      <point x="-639" y="680" type="line"/>
    </contour>
    <contour>
      <point x="-389" y="685" type="line"/>
      <point x="-267" y="685" type="line"/>
      <point x="-267" y="797" type="line"/>
      <point x="-389" y="797" type="line"/>
    </contour>
  </outline>
</glyph>
<glyph name="saraUe-thai.narrow" format="2">
  <anchor x="-268" y="536" name="_top"/>
  <anchor x="-268" y="772" name="top"/>
  <outline>
    <contour>
      <point x="-639" y="624" type="line"/>
      <point x="-346" y="624" type="line" smooth="yes"/>
      <point x="-280" y="624"/>
      <point x="-247" y="664"/>
      <point x="-247" y="717" type="curve" smooth="yes"/>
      <point x="-247" y="772"/>
      <point x="-285" y="812"/>
      <point x="-347" y="812" type="curve" smooth="yes"/>
      <point x="-408" y="812"/>
      <point x="-444" y="775"/>
      <point x="-444" y="725" type="curve" smooth="yes"/>
      <point x="-444" y="715"/>
      <point x="-443" y="703"/>
      <point x="-437" y="690" type="curve"/>
      <point x="-411" y="723" type="line"/>
      <point x="-557" y="723" type="line"/>
      <point x="-639" y="680" type="line"/>
    </contour>
    <contour>
      <point x="-348" y="677" type="curve" smooth="yes"/>
      <point x="-376" y="677"/>
      <point x="-390" y="695"/>
      <point x="-390" y="718" type="curve" smooth="yes"/>
      <point x="-390" y="741"/>
      <point x="-375" y="758"/>
      <point x="-349" y="758" type="curve" smooth="yes"/>
      <point x="-323" y="758"/>
      <point x="-307" y="741"/>
      <point x="-307" y="717" type="curve" smooth="yes"/>
      <point x="-307" y="694"/>
      <point x="-321" y="677"/>
    </contour>
  </outline>
</glyph>
<glyph name="saraUee-thai.narrow" format="2">
  <anchor x="-267" y="536" name="_top"/>
  <anchor x="-308" y="772" name="top"/>
  <outline>
    <contour>
      <point x="-639" y="624" type="line"/>
      <point x="-267" y="624" type="line"/>
      <point x="-267" y="723" type="line"/>
      <point x="-557" y="723" type="line"/>
      <point x="-639" y="680" type="line"/>
    </contour>
    <contour>
      <point x="-480" y="707" type="line"/>
      <point x="-399" y="707" type="line"/>
      <point x="-399" y="797" type="line"/>
      <point x="-480" y="797" type="line"/>
    </contour>
    <contour>
      <point x="-349" y="707" type="line"/>
      <point x="-268" y="707" type="line"/>
      <point x="-268" y="797" type="line"/>
      <point x="-349" y="797" type="line"/>
    </contour>
  </outline>
</glyph>
<glyph name="thanthakhat-thai.narrow" format="2">
  <anchor x="-291" y="536" name="_top"/>
  <anchor x="-298" y="749" name="top"/>
  <outline>
    <contour>
      <point x="-495" y="602" type="curve"/>
      <point x="-378" y="622" type="line"/>
      <point x="-383" y="632"/>
      <point x="-386" y="642"/>
      <point x="-386" y="652" type="curve" smooth="yes"/>
      <point x="-386" y="674"/>
      <point x="-371" y="682"/>
      <point x="-345" y="682" type="curve" smooth="yes"/>
      <point x="-268" y="682" type="line"/>
      <point x="-268" y="783" type="line"/>
      <point x="-388" y="783" type="line" smooth="yes"/>
      <point x="-481" y="783"/>
      <point x="-514" y="738"/>
      <point x="-514" y="682" type="curve" smooth="yes"/>
      <point x="-514" y="652"/>
      <point x="-506" y="621"/>
    </contour>
  </outline>
</glyph>
<glyph name="thanthakhat-thai.small" format="2">
  <anchor x="-79" y="772" name="_top"/>
  <anchor x="-79" y="1037" name="top"/>
  <outline>
    <contour>
      <point x="-231" y="828" type="curve"/>
      <point x="-127" y="851" type="line"/>
      <point x="-133" y="862"/>
      <point x="-136" y="876"/>
      <point x="-136" y="886" type="curve" smooth="yes"/>
      <point x="-136" y="911"/>
      <point x="-120" y="923"/>
      <point x="-87" y="923" type="curve" smooth="yes"/>
      <point x="7" y="923" type="line"/>
      <point x="7" y="1011" type="line"/>
      <point x="-103" y="1011" type="line" smooth="yes"/>
      <point x="-222" y="1011"/>
      <point x="-254" y="962"/>
      <point x="-254" y="910" type="curve" smooth="yes"/>
      <point x="-254" y="883"/>
      <point x="-247" y="852"/>
    </contour>
  </outline>
</glyph>
<glyph name="thoThan-thai.less" format="2">
  <advance width="572"/>
  <anchor x="446" y="0" name="bottom"/>
  <anchor x="517" y="536" name="top"/>
  <outline>
    <contour>
      <point x="117" y="0" type="line"/>
      <point x="244" y="0" type="line" smooth="yes"/>
      <point x="438" y="0"/>
      <point x="515" y="99"/>
      <point x="515" y="271" type="curve" smooth="yes"/>
      <point x="515" y="387"/>
      <point x="478" y="453"/>
      <point x="421" y="478" type="curve"/>
      <point x="398" y="540"/>
      <point x="330" y="561"/>
      <point x="241" y="561" type="curve" smooth="yes"/>
      <point x="152" y="561"/>
      <point x="85" y="541"/>
      <point x="41" y="518" type="curve"/>
      <point x="41" y="393" type="line"/>
      <point x="85" y="420"/>
      <point x="140" y="442"/>
      <point x="211" y="442" type="curve" smooth="yes"/>
      <point x="311" y="442"/>
      <point x="363" y="399"/>
      <point x="363" y="275" type="curve" smooth="yes"/>
      <point x="363" y="167"/>
      <point x="325" y="114"/>
      <point x="259" y="114" type="curve" smooth="yes"/>
      <point x="252" y="114" type="line"/>
      <point x="252" y="322" type="line"/>
      <point x="60" y="322" type="line"/>
      <point x="60" y="230" type="line"/>
      <point x="117" y="230" type="line"/>
    </contour>
    <contour>
      <point x="423" y="439" type="line"/>
      <point x="512" y="464"/>
      <point x="548" y="522"/>
      <point x="548" y="584" type="curve"/>
      <point x="417" y="584" type="line"/>
      <point x="416" y="548"/>
      <point x="388" y="524"/>
      <point x="341" y="508" type="curve"/>
    </contour>
  </outline>
</glyph>
<glyph name="toPatak-thai.short" format="2">
  <advance width="637"/>
  <anchor x="567" y="-174" name="bottom"/>
  <anchor x="541" y="536" name="top"/>
  <outline>
    <contour>
      <point x="61" y="-174" type="line"/>
      <point x="181" y="-174" type="line"/>
      <point x="181" y="-168" type="line" smooth="yes"/>
      <point x="181" y="-147"/>
      <point x="189" y="-120"/>
      <point x="221" y="-120" type="curve" smooth="yes"/>
      <point x="252" y="-120"/>
      <point x="273" y="-146"/>
      <point x="286" y="-174" type="curve"/>
      <point x="321" y="-174" type="line"/>
      <point x="372" y="-122" type="line"/>
      <point x="441" y="-174" type="line"/>
      <point x="567" y="-174" type="line"/>
      <point x="567" y="350" type="line" smooth="yes"/>
      <point x="567" y="491"/>
      <point x="471" y="561"/>
      <point x="317" y="561" type="curve" smooth="yes"/>
      <point x="152" y="561"/>
      <point x="67" y="479"/>
      <point x="67" y="381" type="curve" smooth="yes"/>
      <point x="67" y="355" type="line"/>
      <point x="176" y="316" type="line"/>
      <point x="175" y="312" type="line"/>
      <point x="120" y="298"/>
      <point x="94" y="263"/>
      <point x="94" y="198" type="curve" smooth="yes"/>
      <point x="94" y="131" type="line" smooth="yes"/>
      <point x="94" y="107"/>
      <point x="84" y="96"/>
      <point x="62" y="96" type="curve" smooth="yes"/>
      <point x="54" y="96"/>
      <point x="45" y="97"/>
      <point x="36" y="100" type="curve"/>
      <point x="22" y="17" type="line"/>
      <point x="46" y="5"/>
      <point x="76" y="-4"/>
      <point x="114" y="-4" type="curve" smooth="yes"/>
      <point x="187" y="-4"/>
      <point x="240" y="28"/>
      <point x="240" y="114" type="curve" smooth="yes"/>
      <point x="240" y="192" type="line" smooth="yes"/>
      <point x="240" y="246"/>
      <point x="259" y="270"/>
      <point x="297" y="270" type="curve"/>
      <point x="308" y="335" type="line"/>
      <point x="221" y="374" type="line"/>
      <point x="223" y="411"/>
      <point x="253" y="441"/>
      <point x="315" y="441" type="curve" smooth="yes"/>
      <point x="380" y="441"/>
      <point x="417" y="408"/>
      <point x="417" y="341" type="curve" smooth="yes"/>
      <point x="417" y="-91" type="line"/>
      <point x="438" y="-86" type="line"/>
      <point x="361" y="-30" type="line"/>
      <point x="304" y="-82" type="line"/>
      <point x="279" y="-40"/>
      <point x="242" y="-18"/>
      <point x="187" y="-18" type="curve" smooth="yes"/>
      <point x="118" y="-18"/>
      <point x="61" y="-46"/>
      <point x="61" y="-139" type="curve" smooth="yes"/>
    </contour>
  </outline>
</glyph>
<glyph name="yoYing-thai.less" format="2">
  <advance width="912"/>
  <anchor x="830" y="0" name="bottom"/>
  <anchor x="842" y="536" name="top"/>
  <outline>
    <contour>
      <point x="613" y="-13" type="curve" smooth="yes"/>
      <point x="769" y="-13"/>
      <point x="842" y="56"/>
      <point x="842" y="211" type="curve" smooth="yes"/>
      <point x="842" y="548" type="line"/>
      <point x="692" y="548" type="line"/>
      <point x="692" y="199" type="line" smooth="yes"/>
      <point x="692" y="133"/>
      <point x="660" y="107"/>
      <point x="612" y="107" type="curve" smooth="yes"/>
      <point x="564" y="107"/>
      <point x="532" y="133"/>
      <point x="532" y="199" type="curve" smooth="yes"/>
      <point x="532" y="363" type="line" smooth="yes"/>
      <point x="532" y="497"/>
      <point x="434" y="561"/>
      <point x="295" y="561" type="curve" smooth="yes"/>
      <point x="142" y="561"/>
      <point x="55" y="482"/>
      <point x="55" y="381" type="curve" smooth="yes"/>
      <point x="55" y="355" type="line"/>
      <point x="164" y="316" type="line"/>
      <point x="163" y="312" type="line"/>
      <point x="101" y="293"/>
      <point x="65" y="261"/>
      <point x="65" y="183" type="curve" smooth="yes"/>
      <point x="65" y="118" type="line" smooth="yes"/>
      <point x="65" y="31"/>
      <point x="120" y="-10"/>
      <point x="206" y="-10" type="curve" smooth="yes"/>
      <point x="242" y="-10"/>
      <point x="275" y="-3"/>
      <point x="300" y="10" type="curve"/>
      <point x="286" y="99" type="line"/>
      <point x="276" y="95"/>
      <point x="263" y="93"/>
      <point x="251" y="93" type="curve" smooth="yes"/>
      <point x="223" y="93"/>
      <point x="211" y="105"/>
      <point x="211" y="134" type="curve" smooth="yes"/>
      <point x="211" y="195" type="line" smooth="yes"/>
      <point x="211" y="250"/>
      <point x="237" y="269"/>
      <point x="286" y="270" type="curve"/>
      <point x="296" y="335" type="line"/>
      <point x="209" y="377" type="line"/>
      <point x="212" y="421"/>
      <point x="243" y="443"/>
      <point x="295" y="443" type="curve" smooth="yes"/>
      <point x="348" y="443"/>
      <point x="385" y="419"/>
      <point x="385" y="349" type="curve" smooth="yes"/>
      <point x="385" y="211" type="line" smooth="yes"/>
      <point x="385" y="56"/>
      <point x="457" y="-13"/>
    </contour>
  </outline>
</glyph>
